<svg xmlns="http://www.w3.org/2000/svg" viewBox="0 0 800 800"><defs><style>.cls-1{fill:#c8102e;}.cls-2{fill:#efb188;}.cls-3{fill:#dbdbda;}.cls-4{fill:#d3bba7;}.cls-5{fill:#cc9576;}.cls-6{fill:#00004c;}.cls-7{fill:#1b1464;}</style></defs><g id="Layer_2" data-name="Layer 2"><g id="Layer_2-2" data-name="Layer 2"><rect class="cls-1" width="800" height="800"/><path class="cls-2" d="M578.53,253.2H566.86V204.26c0-81.5-74.5-147.57-166.42-147.57S234,122.76,234,204.26V253.2H222.15c-9,0-16.34,6.49-16.34,14.49v36.93c0,17.83,7.16,35.09,20.2,48.67l7.81,8.13.21-2.11v2.11s21.29,140.45,123.19,187.83c24,11.15,41.15,13.61,75.64,0,112.16-44.26,134-187.83,134-187.83l7.82-8.13c13-13.58,20.19-30.84,20.19-48.67V267.69C594.87,259.69,587.56,253.2,578.53,253.2Z"/><path class="cls-3" d="M566.86,361.42c3.06-14.77-5.47-51-5.47-51l-1.21-2.78s-1.77,38.46-9.84,62.67c-3.91,11.72-43.58,32.62-65.62,63.41,0,.05-.59,1.81-1.39,4.73-.43-1.72-.93-3.49-1.52-5.3-6.59-20.36-74.08-30.55-81.69-21.69-8.35-7.89-74.87,1.33-81.46,21.69-.79,2.43-1.42,4.76-1.93,7-1-4-1.81-6.4-1.85-6.46-22.05-30.79-61.72-51.69-65.62-63.41-8.07-24.21-9.84-62.67-9.84-62.67l-1.21,2.78a189.64,189.64,0,0,0-4.18,51c-.16,5.67-26.07,283.62-4.3,310.83s73.31,61,170.39,61c97.3,0,148.51-33.76,170.28-61S563.8,376.19,566.86,361.42ZM359.13,449.55c31.91,0,39.71-11.17,41-13.5,2.19,2.33,9.25,13.5,41.16,13.5,22.81,0,31.47,13.89,34.76,23.89a27.66,27.66,0,0,1,.55,8c-2.06,20.94-30.51,27.28-34.51,27.14-21.13-.73-24.35-20.54-24.35-20.54,2.22-2.21,14.34,1.11,14.34,1.11l.25-4.8c0-4-19.08-5.9-32.2-5.91-12.8,0-32,1.87-32,5.91l.36,4.8s12.18-3.32,14.4-1.11c0,0-3.19,19.81-24.33,20.54-4,.14-32.43-6.2-34.5-27.14a29.38,29.38,0,0,1,.79-9.12C328.38,462.44,337.16,449.55,359.13,449.55Z"/><path class="cls-4" d="M498,719.11S539.21,532,493.35,449.79c0,0,32.4,37.89,44.11,150.67,11.17,107.57,1.93,97.09,1.93,97.09Z"/><path class="cls-4" d="M321.11,723.55S263.9,537.24,303.75,450.14c0,0-29.82,41.05-32.46,156.34-2.51,110,6,98.58,6,98.58Z"/><path class="cls-5" d="M399.85,402s-15.54,0-22.59-11.63c24.63,9,20,8.89,44.23,0C416,402,399.85,402,399.85,402Z"/><path class="cls-6" d="M485.31,276.45a48.32,48.32,0,0,0-17.43,3.21c.91-.24,1.83-.47,2.75-.67.65-.15,1.49-.32,2.47-.51l.32,0a1.73,1.73,0,0,1,1.54.93,1.76,1.76,0,0,1-.31,2.05,13.13,13.13,0,0,0-3.9,9.39,13.28,13.28,0,1,0,22.64-9.4,1.76,1.76,0,0,1-.31-2.05,1.73,1.73,0,0,1,1.87-.9,55.94,55.94,0,0,1,10.2,2.9c1.41.56,2.8,1.17,4.17,1.85-1.1-.7-2.23-1.34-3.38-1.93A44.93,44.93,0,0,0,485.31,276.45Z"/><path d="M507.52,278.2A48.41,48.41,0,0,0,485.31,273a52.73,52.73,0,0,0-11.54,1.27c-15.3,3.47-26.95,13.81-29.88,16.89h0a4.63,4.63,0,0,0-.7.83,1.72,1.72,0,0,0,.18,1.63,1.75,1.75,0,0,0,1.44.76,2.06,2.06,0,0,0,1.3-.52c.6-.42,2.09-1.46,4.49-2.94a67.9,67.9,0,0,1,18.66-8,16.76,16.76,0,1,0,29.58.05,51.33,51.33,0,0,1,5,1.68,52.39,52.39,0,0,1,9.38,4.84l9.06,5.88a1.75,1.75,0,0,0,2.21-.27,1.73,1.73,0,0,0,.14-2.23A49.17,49.17,0,0,0,507.52,278.2Zm-2.37,3.18a55.94,55.94,0,0,0-10.2-2.9,1.73,1.73,0,0,0-1.87.9,1.76,1.76,0,0,0,.31,2.05,13.28,13.28,0,1,1-18.74,0,1.76,1.76,0,0,0,.31-2.05,1.73,1.73,0,0,0-1.54-.93l-.32,0c-1,.19-1.82.36-2.47.51-.92.2-1.84.43-2.75.67a48.32,48.32,0,0,1,17.43-3.21,44.93,44.93,0,0,1,20.63,4.85c1.15.59,2.28,1.23,3.38,1.93C508,282.55,506.56,281.94,505.15,281.38Z"/><path class="cls-6" d="M319.47,276.45a44.93,44.93,0,0,0-20.63,4.85c-1.15.59-2.28,1.23-3.38,1.93,1.36-.68,2.75-1.29,4.16-1.85a55.48,55.48,0,0,1,10.21-2.9,1.74,1.74,0,0,1,1.55,2.95,13.27,13.27,0,1,0,18.75,0,1.73,1.73,0,0,1-.31-2.05,1.75,1.75,0,0,1,1.86-.91c1,.19,1.81.36,2.45.51.94.2,1.86.43,2.78.67a48.45,48.45,0,0,0-17.44-3.21Z"/><path d="M360.89,291.13h0l0,0c-2.95-3.1-14.51-13.4-29.87-16.88A52.73,52.73,0,0,0,319.47,273a48.38,48.38,0,0,0-22.21,5.24,49.08,49.08,0,0,0-17.14,14.65,1.74,1.74,0,0,0,2.35,2.5l9.06-5.88A51,51,0,0,1,306,283a16.76,16.76,0,1,0,29.58-.05,67.84,67.84,0,0,1,18.65,8c2.42,1.49,3.91,2.53,4.5,2.94a1.94,1.94,0,0,0,1.31.52A1.74,1.74,0,0,0,361.6,292,4.57,4.57,0,0,0,360.89,291.13ZM334.13,279c-.64-.15-1.47-.32-2.45-.51a1.75,1.75,0,0,0-1.86.91,1.73,1.73,0,0,0,.31,2.05,13.28,13.28,0,1,1-18.75,0,1.74,1.74,0,0,0-1.55-2.95,55.48,55.48,0,0,0-10.21,2.9c-1.41.56-2.8,1.17-4.16,1.85,1.1-.7,2.23-1.34,3.38-1.93a44.93,44.93,0,0,1,20.63-4.85,48.45,48.45,0,0,1,17.44,3.21C336,279.42,335.07,279.19,334.13,279Z"/><path class="cls-7" d="M559.3,268.65c-2.53-3.37-8.55-3.88-12.48-3.7A64.71,64.71,0,0,0,428,270.48H370.75A64.71,64.71,0,0,0,251.93,265c-3.92-.18-10,.33-12.48,3.7-1.32,1.76-.59,3.78.74,5.26a10,10,0,0,0,3.48,2.34c1.14.48,2.5.7,3.71,1.16a64.75,64.75,0,0,0,123.06,39.53c-1.1,4.41-2.6,8.7-3.44,13.34a2,2,0,0,0,2.37,2.37c9.84-2.2,11.19-20,11.78-27.91.27-3.57-1.54-17.56-6.49-17.35a64.47,64.47,0,0,0-2.51-13H426.6a65.18,65.18,0,0,0-2.51,13c-4.95-.21-6.76,13.78-6.49,17.35.59,7.88,1.95,25.71,11.79,27.91a1.94,1.94,0,0,0,2.36-2.37c-.83-4.64-2.33-8.93-3.44-13.34a64.74,64.74,0,0,0,123.06-39.53c1.21-.46,2.57-.68,3.72-1.16a10.09,10.09,0,0,0,3.47-2.34C559.89,272.43,560.62,270.41,559.3,268.65ZM310.15,352a58.71,58.71,0,1,1,58.71-58.7A58.7,58.7,0,0,1,310.15,352Zm178.45,0a58.71,58.71,0,1,1,58.7-58.7A58.7,58.7,0,0,1,488.6,352Z"/></g></g></svg>