<svg xmlns="http://www.w3.org/2000/svg" viewBox="0 0 1046 638.58"><defs><style>.cls-1{fill:#3f3d56;}.cls-2{fill:#c8102e;}.cls-3{fill:#2f2e41;}.cls-4{fill:#f2f2f2;}.cls-5{fill:#ffb8b8;}.cls-6{fill:#8985a8;}</style></defs><g id="Layer_2" data-name="Layer 2"><g id="a97f4f18-b594-445c-bff7-5523e3bdff5d"><path class="cls-1" d="M161.23,554.65c8.57,31.66,37.9,51.27,37.9,51.27s15.45-31.73,6.89-63.39-37.9-51.27-37.9-51.27S152.67,523,161.23,554.65Z"/><path class="cls-2" d="M173.82,547.84c23.5,22.88,26.37,58,26.37,58S165,604,141.45,581.09,115.08,523,115.08,523,150.31,525,173.82,547.84Z"/><rect class="cls-3" x="113.47" y="636.03" width="827.6" height="2.55"/><path class="cls-1" d="M210.73,637.31h-33.2V604.1h33.2Zm-30.65-2.56h28.1v-28.1h-28.1Z"/><rect class="cls-1" y="25.32" width="281.42" height="281.42"/><path class="cls-2" d="M281.42,95.34v6.46a29.25,29.25,0,0,1-10-11.38c-3.74-7.66-3.62-16.49-3.51-25,.14-10.15.28-19.73-6.17-26-7.08-6.85-18.42-5.88-29.39-4.95l-3.85.32c-11,.83-23.26-2-29.21-9.46h7.42c5.45,3.66,13.77,4.95,21.42,4.38,1.23-.09,2.5-.21,3.78-.31,11.54-1,24.63-2.1,33.36,6.36,8,7.76,7.88,18.92,7.73,29.7-.12,8-.22,16.16,3,22.73A23.32,23.32,0,0,0,281.42,95.34Z"/><path class="cls-2" d="M281.42,140v7.56a32.38,32.38,0,0,0-4.14-4.46C268.54,135.4,256,133.7,243.83,132c-1.57-.2-3.11-.42-4.66-.64-19.68-2.83-31.89-9.6-37.29-20.64-3.75-7.66-3.63-16.49-3.51-25,.13-10.16.27-19.74-6.17-26-7.09-6.85-18.43-5.88-29.4-5-1.29.1-2.58.22-3.85.33-14.14,1.06-30.36-3.84-32.58-17.08-.77-4.54.37-8.71,2-12.73H134c-1.87,4-3.26,7.94-2.59,11.89,1.67,10.1,15.27,13.73,27.19,12.83,1.24-.09,2.51-.2,3.78-.31,11.54-1,24.63-2.1,33.36,6.36,8,7.77,7.89,18.92,7.73,29.7-.12,7.95-.22,16.16,3,22.74,4.61,9.42,15.55,15.25,33.45,17.83l4.61.65c12.89,1.74,26.23,3.56,36.15,12.29C280.91,139.52,281.17,139.75,281.42,140Z"/><path class="cls-2" d="M281.42,267.46V277.9c-6.12-6.51-11.24-15.44-15.16-26.61-.83-2.38-1.62-4.8-2.42-7.22-4.39-13.28-8.93-27-19.75-35.76C232.53,199,216,196.89,199.94,194.89c-2.05-.26-4.1-.51-6.13-.78-26-3.45-42.06-11.63-49.2-25-5-9.3-4.8-20-4.65-30.38.19-12.3.38-23.93-8.13-31.5-9.34-8.3-24.31-7.13-38.77-6l-5.07.39C69.32,102.88,47.91,97,45,80.89,43.55,73,47.23,66.06,50.77,59.31c2-3.86,4-7.54,4.95-11.32,2.07-7.78-.49-16.55-6.17-22.67h8.31a29.86,29.86,0,0,1,4.39,24.13C61.08,53.87,58.91,58,56.81,62c-3.24,6.14-6.27,11.93-5.21,17.87,2.24,12.24,20.16,16.64,35.88,15.56l5-.37c15.22-1.21,32.48-2.55,44,7.71,10.59,9.41,10.39,22.94,10.19,36-.14,9.64-.29,19.6,3.95,27.58,6.08,11.41,20.53,18.5,44.14,21.63,2,.27,4,.53,6.07.78,17,2.12,34.6,4.31,47.67,14.9,12.26,9.94,17.09,24.5,21.74,38.59.79,2.41,1.59,4.78,2.41,7.14A80.32,80.32,0,0,0,281.42,267.46Z"/><path class="cls-2" d="M0,139c7.73,9.36,24.12,12.81,38.82,11.8l5.07-.39c14.46-1.14,29.43-2.31,38.77,6,8.51,7.56,8.33,19.19,8.14,31.5-.15,10.36-.3,21.07,4.65,30.38,7.13,13.39,23.22,21.58,49.19,25q3.06.4,6.14.78c16,2,32.58,4.07,44.15,13.43,10.81,8.76,15.36,22.48,19.75,35.75.79,2.42,1.59,4.85,2.42,7.22.76,2.19,1.58,4.27,2.42,6.29h7.26c-1.27-2.76-2.36-5.53-3.29-8.17-.81-2.36-1.61-4.73-2.41-7.14-4.64-14.08-9.47-28.65-21.73-38.58-13.07-10.6-30.65-12.78-47.67-14.9-2-.26-4.07-.51-6.07-.78C122,234,107.55,226.94,101.46,215.53c-4.23-8-4.08-17.93-3.95-27.58.21-13.07.41-26.6-10.19-36-11.52-10.25-28.78-8.91-44-7.71l-5,.37C22.6,145.69,4.68,141.28,2.44,129c-1.07-5.93,2-11.73,5.21-17.87,2.1-4,4.27-8.14,5.44-12.56C16.27,86.51,10.9,73.1,0,65.77v8.31c6,6.14,8.66,15.1,6.56,23.07-1,3.78-2.92,7.46-4.95,11.33-.54,1-1.08,2-1.61,3.1Z"/><path class="cls-2" d="M124.49,306.74h-7c-.37-1.1-.73-2.22-1.1-3.34-4.39-13.27-8.94-27-19.75-35.75C85,258.29,68.47,256.22,52.45,254.22c-2.05-.25-4.1-.51-6.13-.78-22.92-3-38.17-9.78-46.32-20.53V216a31.78,31.78,0,0,0,3.14,9.67c6.08,11.41,20.53,18.49,44.14,21.63,2,.27,4,.52,6.07.78,17,2.12,34.6,4.3,47.67,14.9,12.26,9.93,17.09,24.5,21.74,38.58C123.33,303.33,123.89,305.05,124.49,306.74Z"/><rect class="cls-1" x="381.44" y="25.32" width="281.42" height="281.42"/><path class="cls-2" d="M517.07,45.67A89.86,89.86,0,0,1,381.44,123V25.32h133.3A89.35,89.35,0,0,1,517.07,45.67Z"/><circle class="cls-2" cx="589.96" cy="101.61" r="54.25"/><circle class="cls-2" cx="467.9" cy="216.89" r="38.99"/><path class="cls-2" d="M662.86,260.63v46.11H607.07a39,39,0,0,1,55.79-46.11Z"/><circle class="cls-2" cx="566.23" cy="215.2" r="10.17"/><rect class="cls-1" x="764.58" y="25.32" width="281.42" height="281.42"/><path class="cls-2" d="M901.9,25.32V140.6H764.58v6.78h144.1V25.32Z"/><path class="cls-2" d="M1034.35,306.74,1046,290.18V278.4l-19.94,28.34Zm-47.3-121.35-62.4,88.75L971,306.74H982.8L934.09,272.5l54.61-77.67,57.3,40.3v-8.29Z"/><path class="cls-2" d="M883.25,174.15l-36,36,36,36,36-36Zm-26.38,36,26.38-26.38,26.38,26.38-26.38,26.38Z"/><circle class="cls-4" cx="137.93" cy="25.54" r="25.54"/><circle class="cls-4" cx="532.58" cy="25.54" r="25.54"/><circle class="cls-4" cx="909.34" cy="25.54" r="25.54"/><circle class="cls-5" cx="506.4" cy="150.07" r="24.27" transform="matrix(0.17, -0.98, 0.98, 0.17, 270.74, 622.75)"/><path class="cls-5" d="M493.63,161.56s6.38,33.21,3.83,39.59,35.76-2.55,35.76-2.55-7.67-33.21-6.39-40.87S493.63,161.56,493.63,161.56Z"/><polygon class="cls-5" points="451.48 276.51 454.03 310.99 466.71 365.15 470.64 379.96 477.02 356.97 470.64 304.6 468.47 281.03 451.48 276.51"/><path class="cls-5" d="M585.58,271.4v35.76s-3.83,46-11.49,57.47-10.22-46-10.22-46l6-42.14Z"/><path class="cls-3" d="M471.91,382.51s-6.38,7.66-1.27,85.57-2.56,134.1,14,134.1c0,0-5.1,16.61,8.95,17.88s20.43,2.56,21.71-1.27,3.83-21.71,0-21.71c0,0,0,5.1,2.55-15.33s2.56-117.5,8.94-130.27l20.44,47.25s0,21.72,3.83,31.93,10.22,69,10.22,69L560,608.57s30.65,5.11,31.93,0,1.27-12.77,0-15.33-1.28-2.55,1.27-7.66,2.56-8.94,1.28-12.77S593.24,486,593.24,486s-2.55-100.89-17.88-106S471.91,382.51,471.91,382.51Z"/><path class="cls-3" d="M488.52,609.85,478.3,627.73s-16-5.75-12.77,8.94c27.46,1.91,46.61-.64,46.61-.64s6.39,2.55,7.67-1.28-3.2-17.24-7-17.24S488.52,609.85,488.52,609.85Z"/><path class="cls-3" d="M562.59,604.74s-10.22,23-6.38,24.26,38.31,6.39,40.87,7.67,15.32,2.55,16.6-5.11-6.39-10.22-6.39-10.22-14-2.55-17.88-15.32S562.59,604.74,562.59,604.74Z"/><path class="cls-6" d="M535.77,194.77s-34.48-6.39-42.14,0S454,213.93,454,220.31s16.61,69,16.61,69-8.94,94.51,0,97.06,24.26-5.11,42.14,3.83,69-7.66,69-7.66-19.16-81.74-14-97.06,8.94-67.69,8.94-67.69S554.93,194.77,535.77,194.77Z"/><path class="cls-6" d="M463,216.48,454,219s-19.15,60-11.49,62.59,29.37,7.66,31.93,7.66S463,216.48,463,216.48Z"/><path class="cls-6" d="M556.21,210.09l20.43,7.67s26.82,49.81,20.44,56.19-34.49,12.77-34.49,12.77Z"/><path class="cls-3" d="M505.66,120.09a13.83,13.83,0,0,0-6.07.27,15.84,15.84,0,0,0-4.31,2.83,51,51,0,0,1-7.38,4.89c-2.07,1.12-4.29,2.16-5.74,4a12.19,12.19,0,0,0-1.62,3.07,36.67,36.67,0,0,0-1.93,20,9.06,9.06,0,0,0,.85,2.75c1.33,2.45,4.26,3.41,6.73,4.69,4.69,2.44,8.24,6.53,12.09,10.16a24,24,0,0,0,4.77,3.68c5.49,3,12.2,2,18.36,1a3.32,3.32,0,0,0,3.3-3.32v0l4.86-21.87a35.9,35.9,0,0,0,1.25-9.94c-.34-5.31-3.22-12.66-7.11-16.43C519.17,121.42,511.59,120.72,505.66,120.09Z"/><circle class="cls-2" cx="341.31" cy="607.97" r="10.08"/><path class="cls-3" d="M341.31,637.08A29.12,29.12,0,1,1,370.43,608,29.11,29.11,0,0,1,341.31,637.08Zm0-56A26.88,26.88,0,1,0,368.19,608h0A26.91,26.91,0,0,0,341.31,581.09Z"/><circle class="cls-2" cx="831.74" cy="609.25" r="10.08"/><path class="cls-3" d="M831.74,638.36a29.12,29.12,0,1,1,29.12-29.11A29.11,29.11,0,0,1,831.74,638.36Zm0-56a26.88,26.88,0,1,0,26.88,26.88h0A26.91,26.91,0,0,0,831.74,582.37Z"/><circle class="cls-2" cx="831.74" cy="553.05" r="10.08"/><path class="cls-3" d="M831.74,582.17a29.12,29.12,0,1,1,29.12-29.12A29.11,29.11,0,0,1,831.74,582.17Zm0-56a26.88,26.88,0,1,0,26.88,26.88h0A26.91,26.91,0,0,0,831.74,526.17Z"/></g></g></svg>