<svg xmlns="http://www.w3.org/2000/svg" viewBox="0 0 800 800"><defs><style>.cls-1{fill:#c8102e;}.cls-2{fill:#efb188;}.cls-3{fill:#dbdbda;}.cls-4{fill:#d3bba7;}.cls-5{fill:#cc9576;}.cls-6{fill:#00004c;}</style></defs><g id="Layer_2" data-name="Layer 2"><g id="Layer_2-2" data-name="Layer 2"><rect class="cls-1" width="800" height="800"/><path class="cls-2" d="M578.53,278.16H566.86V229.23c0-81.51-74.5-147.58-166.42-147.58S234,147.72,234,229.23v48.93H222.15c-9,0-16.34,6.49-16.34,14.5v36.92c0,17.84,7.16,35.09,20.2,48.67l7.81,8.14.21-2.12v2.12s21.29,140.44,123.19,187.82c24,11.15,41.15,13.62,75.64,0,112.16-44.26,134-187.82,134-187.82l7.82-8.14c13-13.58,20.19-30.83,20.19-48.67V292.66C594.87,284.65,587.56,278.16,578.53,278.16Z"/><path class="cls-3" d="M566.86,386.39c3.06-14.77-5.47-51-5.47-51l-1.21-2.78s-1.77,38.46-9.84,62.67c-3.91,11.72-43.58,32.61-65.62,63.41,0,.05-.59,1.8-1.39,4.73-.43-1.73-.93-3.49-1.52-5.31-6.59-20.36-74.08-30.55-81.69-21.69-8.35-7.88-74.87,1.33-81.46,21.69-.79,2.43-1.42,4.77-1.93,7-1-3.94-1.81-6.39-1.85-6.45-22.05-30.8-61.72-51.69-65.62-63.41-8.07-24.21-9.84-62.67-9.84-62.67l-1.21,2.78a189.64,189.64,0,0,0-4.18,51c-.16,5.66-26.07,283.62-4.3,310.83s73.31,61,170.39,61c97.3,0,148.51-33.76,170.28-61S563.8,401.16,566.86,386.39ZM359.13,474.52c31.91,0,39.71-11.18,41-13.51,2.19,2.33,9.25,13.51,41.16,13.51,22.81,0,31.47,13.88,34.76,23.88a27.71,27.71,0,0,1,.55,8c-2.06,20.94-30.51,27.27-34.51,27.13C421,532.82,417.73,513,417.73,513c2.22-2.22,14.34,1.1,14.34,1.1l.25-4.79c0-4.05-19.08-5.91-32.2-5.92-12.8,0-32,1.87-32,5.92l.36,4.79s12.18-3.32,14.4-1.1c0,0-3.19,19.8-24.33,20.53-4,.14-32.43-6.19-34.5-27.13a29.45,29.45,0,0,1,.79-9.13C328.38,487.4,337.16,474.52,359.13,474.52Z"/><path class="cls-4" d="M498,744.08S539.21,557,493.35,474.75c0,0,32.4,37.89,44.11,150.67,11.17,107.58,1.93,97.1,1.93,97.1Z"/><path class="cls-4" d="M321.11,748.51s-57.21-186.3-17.36-273.4c0,0-29.82,41-32.46,156.33-2.51,110,6,98.58,6,98.58Z"/><path class="cls-5" d="M399.85,426.91s-15.54,0-22.59-11.62c24.63,8.95,20,8.89,44.23,0C416,426.91,399.85,426.91,399.85,426.91Z"/><path class="cls-6" d="M485.31,301.41a50.06,50.06,0,0,0-10.77,1.19,50.61,50.61,0,0,0-6.66,2c.91-.24,1.83-.46,2.75-.67.65-.14,1.49-.32,2.47-.5a1.74,1.74,0,0,1,1.86.9,1.76,1.76,0,0,1-.31,2,13.15,13.15,0,0,0-3.9,9.39,13.28,13.28,0,1,0,22.64-9.4,1.75,1.75,0,0,1,1.56-2.95,56,56,0,0,1,10.2,2.91c1.41.55,2.8,1.17,4.17,1.84-1.1-.69-2.23-1.33-3.38-1.92A44.94,44.94,0,0,0,485.31,301.41Z"/><path d="M507.52,303.16a48.4,48.4,0,0,0-22.21-5.23,52.73,52.73,0,0,0-11.54,1.27c-15.3,3.46-26.95,13.8-29.88,16.88h0a4.51,4.51,0,0,0-.7.84,1.7,1.7,0,0,0,.18,1.62,1.73,1.73,0,0,0,1.44.77,2,2,0,0,0,1.3-.53c.6-.41,2.09-1.45,4.49-2.93a67.3,67.3,0,0,1,18.66-8,16.76,16.76,0,1,0,29.58,0,51.33,51.33,0,0,1,5,1.68,52.39,52.39,0,0,1,9.38,4.84l9.06,5.88a1.75,1.75,0,0,0,2.35-2.5A49.27,49.27,0,0,0,507.52,303.16Zm-2.37,3.19a56,56,0,0,0-10.2-2.91,1.75,1.75,0,0,0-1.56,2.95,13.28,13.28,0,1,1-18.74,0,1.76,1.76,0,0,0,.31-2,1.74,1.74,0,0,0-1.86-.9c-1,.18-1.82.36-2.47.5-.92.21-1.84.43-2.75.67a50.61,50.61,0,0,1,6.66-2,50.06,50.06,0,0,1,10.77-1.19,44.94,44.94,0,0,1,20.63,4.86c1.15.59,2.28,1.23,3.38,1.92C508,307.52,506.56,306.9,505.15,306.35Z"/><path class="cls-6" d="M319.47,301.41a44.94,44.94,0,0,0-20.63,4.86c-1.15.59-2.28,1.23-3.38,1.92,1.36-.67,2.75-1.29,4.16-1.84a56.29,56.29,0,0,1,10.21-2.91,1.75,1.75,0,0,1,1.55,2.95,13.27,13.27,0,1,0,18.75,0,1.74,1.74,0,0,1,1.55-2.95c1,.18,1.81.36,2.45.5.94.21,1.86.43,2.78.68a48.1,48.1,0,0,0-17.44-3.22Z"/><path d="M360.89,316.1h0C357.93,313,346.37,302.67,331,299.2a52.73,52.73,0,0,0-11.54-1.27,48.37,48.37,0,0,0-22.21,5.23,49.19,49.19,0,0,0-17.14,14.65,1.74,1.74,0,0,0,2.35,2.5l9.06-5.88a53.29,53.29,0,0,1,9.37-4.84,51.52,51.52,0,0,1,5.05-1.68,16.76,16.76,0,1,0,29.58,0,67.24,67.24,0,0,1,18.65,8c2.42,1.48,3.91,2.53,4.5,2.94a2,2,0,0,0,1.31.52,1.75,1.75,0,0,0,1.43-.77,1.72,1.72,0,0,0,.18-1.6A4.25,4.25,0,0,0,360.89,316.1ZM334.13,304c-.64-.14-1.47-.32-2.45-.5a1.74,1.74,0,0,0-1.55,2.95,13.28,13.28,0,1,1-18.75,0,1.74,1.74,0,0,0-1.55-2.95,56.29,56.29,0,0,0-10.21,2.91c-1.41.55-2.8,1.17-4.16,1.84,1.1-.69,2.23-1.33,3.38-1.92a44.94,44.94,0,0,1,20.63-4.86,48.1,48.1,0,0,1,17.44,3.22C336,304.38,335.07,304.16,334.13,304Z"/><path class="cls-6" d="M419.6,276.87a89.16,89.16,0,0,1-15.32,3L400,280l-4.27-.08a89.81,89.81,0,0,1-15.34-3s-74.76-21.63-168.58-3.68l5.23,22s9-1.12,11.6,7.85c0,0,5.5,36.26,13,52.34,0,0,6.72,15.68,28.79,22,0,0,45.8,10.84,78.34-6.36,0,0,12.22-3.73,30.17-42.6l9-20.56s1.36-6.79,10.89-7.75c.12,0,.61,0,1.24,0s1.12,0,1.25,0c9.52,1,10.88,7.75,10.88,7.75l9,20.56c17.93,38.87,30.16,42.6,30.16,42.6,32.53,17.2,78.34,6.36,78.34,6.36,22.06-6.36,28.79-22,28.79-22,7.48-16.08,13-52.34,13-52.34,2.61-9,11.59-7.85,11.59-7.85l5.21-22C494.36,255.24,419.6,276.87,419.6,276.87Zm-50,28c-1.83,16.07-4.23,34.57-14.48,47.51C344,366.46,326.77,370,309.57,370.81c-15,.71-37.55-.18-50.12-9.52-13-9.67-22.57-61.25-10-75.4,5.65-6.36,13.32-8.41,21.46-9.4,15-1.81,32.56-2.93,47.56-1.54C366.58,279.49,371.05,291.87,369.58,304.87Zm171,56.42c-12.6,9.34-35.1,10.23-50.12,9.52-17.22-.79-34.38-4.37-45.53-18.43-10.28-12.94-12.63-31.44-14.48-47.51-1.47-13,3-25.38,51.12-29.92,15-1.39,32.59-.27,47.57,1.54,8.14,1,15.8,3.05,21.48,9.4C563.16,300,553.61,351.62,540.58,361.29Z"/></g></g></svg>