<svg xmlns="http://www.w3.org/2000/svg" viewBox="0 0 1126.19 855"><defs><style>.cls-1{fill:#f2f2f2;}.cls-2{fill:#3f3d56;}.cls-3{opacity:0.1;isolation:isolate;}.cls-4{fill:#c8102e;}.cls-5{fill:#2f2e41;}.cls-6{fill:#fbbebe;}</style></defs><g id="Layer_2" data-name="Layer 2"><g id="a594ac37-6d44-4297-8862-1cbd9c01c0b7"><path class="cls-1" d="M544.86,755.94C302.47,737.49,13.39,549.67,28.11,356.28S322.8-17.14,565.2,1.31,947.13,381.17,932.41,574.56,787.26,774.38,544.86,755.94Z"/><ellipse class="cls-2" cx="565.19" cy="756" rx="506" ry="31"/><ellipse class="cls-3" cx="565.19" cy="755.5" rx="431" ry="20.5"/><ellipse class="cls-2" cx="212.19" cy="836.5" rx="212.19" ry="18.5"/><ellipse class="cls-3" cx="212.19" cy="836.2" rx="180.74" ry="12.23"/><rect class="cls-2" x="196.19" y="162" width="752" height="590"/><path class="cls-1" d="M563.64,242.63H378.12a2.25,2.25,0,1,1,0-4.5H563.64a2.25,2.25,0,0,1,0,4.5Z"/><path class="cls-1" d="M766.72,267.39H474.93a2.25,2.25,0,1,1,0-4.5H766.72a2.25,2.25,0,0,1,0,4.5Z"/><path class="cls-1" d="M564.54,292.16H379a2.25,2.25,0,0,1,0-4.5H564.54a2.25,2.25,0,0,1,0,4.5Z"/><path class="cls-1" d="M766.72,292.61H581.2a2.25,2.25,0,0,1,0-4.5H766.72a2.25,2.25,0,0,1,0,4.5Z"/><path class="cls-1" d="M565,316.93H379.47a2.26,2.26,0,0,1,0-4.51H565a2.26,2.26,0,0,1,0,4.51Z"/><path class="cls-1" d="M565.44,341.69H379.92a2.25,2.25,0,0,1,0-4.5H565.44a2.25,2.25,0,0,1,0,4.5Z"/><path class="cls-1" d="M649.64,243.08H596.51a2.25,2.25,0,0,1,0-4.5h53.13a2.25,2.25,0,0,1,0,4.5Z"/><path class="cls-1" d="M649.64,316.93H596.51a2.26,2.26,0,0,1,0-4.51h53.13a2.26,2.26,0,0,1,0,4.51Z"/><path class="cls-1" d="M649.64,341.24H596.51a2.25,2.25,0,0,1,0-4.5h53.15a2.25,2.25,0,1,1,0,4.5Z"/><path class="cls-1" d="M738.8,341.24H685.67a2.25,2.25,0,1,1,0-4.5H738.8a2.25,2.25,0,1,1,0,4.5Z"/><path class="cls-1" d="M430.8,267.39H377.67a2.25,2.25,0,1,1,0-4.5H430.8a2.25,2.25,0,1,1,0,4.5Z"/><path class="cls-1" d="M563.86,607.36H378.35a2.25,2.25,0,1,1,0-4.5H563.86a2.25,2.25,0,0,1,0,4.5Z"/><path class="cls-1" d="M563,656.89H377.44a2.25,2.25,0,1,1,0-4.5H563a2.25,2.25,0,0,1,0,4.5Z"/><path class="cls-1" d="M563.41,681.66H377.9a2.26,2.26,0,1,1,0-4.51H563.41a2.26,2.26,0,0,1,0,4.51Z"/><path class="cls-1" d="M642.66,657.34H589.53a2.25,2.25,0,0,1,0-4.5h53.13a2.25,2.25,0,0,1,0,4.5Z"/><path class="cls-1" d="M642.66,681.66H589.53a2.26,2.26,0,0,1,0-4.51h53.13a2.26,2.26,0,0,1,0,4.51Z"/><path class="cls-1" d="M731.82,657.34H678.69a2.25,2.25,0,1,1,0-4.5h53.13a2.25,2.25,0,0,1,0,4.5Z"/><path class="cls-1" d="M766.94,632.13H475.16a2.26,2.26,0,0,1,0-4.51H766.94a2.26,2.26,0,0,1,0,4.51Z"/><path class="cls-1" d="M431,632.13H377.9a2.26,2.26,0,1,1,0-4.51H431a2.26,2.26,0,0,1,0,4.51Z"/><path class="cls-1" d="M766.94,706.87H475.16a2.25,2.25,0,1,1,0-4.5H766.94a2.25,2.25,0,0,1,0,4.5Z"/><path class="cls-1" d="M431,706.87H377.9a2.25,2.25,0,1,1,0-4.5H431a2.25,2.25,0,1,1,0,4.5Z"/><polygon class="cls-4" points="519.06 401.13 447.01 472.27 519.06 543.42 535.27 527.21 480.79 472.73 535.72 417.79 519.06 401.13"/><polygon class="cls-4" points="625.33 401.13 697.37 472.27 625.33 543.42 609.12 527.21 663.6 472.73 608.67 417.79 625.33 401.13"/><circle class="cls-4" cx="216.19" cy="177" r="9"/><circle class="cls-4" cx="240.19" cy="177" r="9"/><circle class="cls-4" cx="264.19" cy="177" r="9"/><rect class="cls-3" x="196.19" y="192" width="752" height="3"/><path class="cls-1" d="M1126.19,607.45c0,63.77-37.91,86-84.67,86s-84.68-22.27-84.68-86,84.68-144.89,84.68-144.89S1126.19,543.68,1126.19,607.45Z"/><polygon class="cls-2" points="1038.43 683.74 1039.3 630.37 1075.39 564.34 1039.44 621.99 1039.83 598 1064.7 550.23 1039.93 591.64 1039.93 591.64 1040.63 548.48 1067.27 510.45 1040.74 541.7 1041.18 462.56 1038.42 567.33 1038.65 563 1011.57 521.55 1038.22 571.3 1035.69 619.5 1035.62 618.22 1004.4 574.6 1035.52 622.74 1035.21 628.77 1035.15 628.86 1035.18 629.36 1028.78 751.65 1037.33 751.65 1038.36 688.49 1069.4 640.46 1038.43 683.74"/><path class="cls-5" d="M122.62,751.09a42.78,42.78,0,0,1-8.18,3.5c-5.08,1.39-10.5.88-15.63,2.07-2.1.48-4.39,1.5-5.06,3.55-.49,1.5,0,3.12.56,4.62,5.66,16.62,9.08,34.26,18.12,49.32a74.94,74.94,0,0,0,14,17c2.06,1.85,4.39,3.66,7.14,4a7.24,7.24,0,0,0,7.37-10.18c-.81-1.8-2.32-3.2-3.29-4.92a18.85,18.85,0,0,1-1.82-7c-.89-7.11-1.75-14.53.71-21.26,1.65-4.51,4.68-8.36,7.21-12.45s4.62-8.77,4.06-13.54c-.39-3.26-2-6.24-3.65-9.06s-5-10.41-8.39-11.35S125.68,749.52,122.62,751.09Z"/><path class="cls-5" d="M215.06,808.5a13.94,13.94,0,0,1-.67,4.75c-1,2.79-3.68,4.7-5,7.36-1.89,3.7-1,8.18.22,12.14.78,2.48,1.81,5.06,3.91,6.6a13,13,0,0,0,5.95,1.91c18,2.49,36.36,1.06,54.56,1.58,3.32.1,6.83.22,9.73-1.41s4.68-5.69,2.71-8.36c-1.77-2.4-5.26-2.38-8.24-2.52a34,34,0,0,1-20.91-8.62,15.26,15.26,0,0,1-2.94-3.37,20.71,20.71,0,0,1-1.53-3.52,158,158,0,0,0-9.08-20.12c-1-1.81-2.09-3.7-3.91-4.68a10.34,10.34,0,0,0-4.24-.92c-4.54-.3-16.28-1.84-19.79,1.69C212.56,794.27,215.13,804.36,215.06,808.5Z"/><circle class="cls-6" cx="242.97" cy="376.72" r="28.97" transform="translate(-150.03 592.37) rotate(-85.93)"/><path class="cls-6" d="M216.81,400.65c-1.73,4.61-4.65,8.94-8.9,11.43L248,420.25a42.4,42.4,0,0,1-.56-17.87,10.26,10.26,0,0,0,.24-4.41c-.76-2.9-4-4.3-7-5-7.31-1.67-13.78-2.56-20.58-5.79C218.05,390.76,218.34,396.55,216.81,400.65Z"/><path class="cls-5" d="M207.57,401.23a31.32,31.32,0,0,1,27.31.71c5.14,2.71,9.4,6.79,13.58,10.83,3.85,3.71,8,8,8.23,13.32.13,2.59-.67,5.12-1.08,7.68a25.75,25.75,0,0,0,13.78,26.47c3.18,5.3,3.84,11.73,3.89,17.91.18,23.44-7.21,47.16-1.93,70,1.24,5.36,3.16,10.55,4.23,16,1.39,7,1.32,14.18,2,21.27a95.29,95.29,0,0,0,5.12,22.49c-1.75,2.78-5.38,3.84-8.65,3.62s-6.32-1.65-9.24-3.14c-14.12-7.23-27.06-16.76-41.69-22.9-9.67-4.06-20-6.59-29.37-11.29s-18.12-12.14-21-22.23c-1.24-4.37-1.32-9-1.39-13.51-.28-19.11-.55-38.43,3.61-57.09,3.67-16.45,10.74-32.19,12.29-49,.5-5.47.51-11.32,3.56-15.87C195.19,410,204.51,408.35,207.57,401.23Z"/><path class="cls-5" d="M226.49,377.13c1.71-2.23,5-2.53,7.73-1.87s5.24,2.06,8,2.6a4.69,4.69,0,0,0,3.74-.53,5.48,5.48,0,0,0,1.62-3.57,68.36,68.36,0,0,0,.67-17.38,5.05,5.05,0,0,1,.16-2.44c.68-1.64,2.76-2,4.46-2.56a13.3,13.3,0,0,0,9-13.63,5.4,5.4,0,0,0-1.66-3.74c-1.17-1-2.82-1-4.33-1q-11.69-.09-23.37,0c-2.88,0-5.91.1-8.41,1.54-1.85,1.06-3.22,2.77-4.88,4.11-4.33,3.49-10.18,4.2-15.44,6a15.34,15.34,0,0,0-6.77,4c-1.75,2-2.59,5-1.49,7.4a24,24,0,0,0,1.89,2.9c3.1,5,1,11.4,1.5,17.24.58,7.29,11.36,19.11,18.68,20.84C229.4,399.81,222.58,381.91,226.49,377.13Z"/><path class="cls-5" d="M210.13,696.68c.75,5.32,1.7,10.66,1.45,16-.36,7.5-3.06,14.72-3.56,22.2-.37,5.59.49,11.24-.29,16.79-.49,3.56-1.65,7-2.37,10.5a43.41,43.41,0,0,0,7,33.26,5.45,5.45,0,0,0,2,2,5.65,5.65,0,0,0,2.51.33A180,180,0,0,0,242,795.47a2.4,2.4,0,0,0,1.61-.72,2.15,2.15,0,0,0,.35-1c1.55-7.94-2-15.89-2.87-23.93-1-8.58,1.1-17.18,3.15-25.56a112.74,112.74,0,0,1,3.46-12.23c1-2.7,2.18-5.32,3-8.06a61.61,61.61,0,0,0,2.2-13.21q.9-10.57,1-21.2a89,89,0,0,0-1.67-20c-1.88-8.33-5.72-16.08-9.53-23.73a15,15,0,0,0-5.62,2.67A124.68,124.68,0,0,1,221.76,657c-3.57,1.65-10.52,2.83-12.79,6.28s-.79,10.35-.62,14.11Q208.78,687.08,210.13,696.68Z"/><path class="cls-3" d="M210.13,696.68c.75,5.32,1.7,10.66,1.45,16-.36,7.5-3.06,14.72-3.56,22.2-.37,5.59.49,11.24-.29,16.79-.49,3.56-1.65,7-2.37,10.5a43.41,43.41,0,0,0,7,33.26,5.45,5.45,0,0,0,2,2,5.65,5.65,0,0,0,2.51.33A180,180,0,0,0,242,795.47a2.4,2.4,0,0,0,1.61-.72,2.15,2.15,0,0,0,.35-1c1.55-7.94-2-15.89-2.87-23.93-1-8.58,1.1-17.18,3.15-25.56a112.74,112.74,0,0,1,3.46-12.23c1-2.7,2.18-5.32,3-8.06a61.61,61.61,0,0,0,2.2-13.21q.9-10.57,1-21.2a89,89,0,0,0-1.67-20c-1.88-8.33-5.72-16.08-9.53-23.73a15,15,0,0,0-5.62,2.67A124.68,124.68,0,0,1,221.76,657c-3.57,1.65-10.52,2.83-12.79,6.28s-.79,10.35-.62,14.11Q208.78,687.08,210.13,696.68Z"/><path class="cls-5" d="M171,583c-3.85,10.36,1.81,21.55,6.72,31.45,12.11,24.39,20.52,50.41,28.88,76.32.62,1.94,1.25,4.06.55,6a7.85,7.85,0,0,1-2.82,3.35c-5.77,4.38-13.11,5.94-20,8.23a89.71,89.71,0,0,0-18.95,8.88c-5,3.08-9.64,6.64-14.29,10.2l-14.81,11.31a9.92,9.92,0,0,0-2.48,2.4c-1.43,2.24-.84,5.16-.13,7.72a131.82,131.82,0,0,0,7.25,19.8,7,7,0,0,0,2.63,3.44c2.31,1.24,5.14-.4,6.91-2.35s3.29-4.35,5.78-5.19,5.22.18,7.82-.19c4.2-.59,7-4.45,10-7.42,12.36-12.13,33-11.25,46.61-22a59.63,59.63,0,0,1,6.23-4.87c2.3-1.36,4.91-2.1,7.3-3.3,7.25-3.66,11.81-11.21,14.26-19s3.14-15.93,4.9-23.86c.9-4.1,2.1-8.16,2.5-12.34a66,66,0,0,0-.25-11.67l-4.91-60.71c-.4-5-.8-9.89-1.57-14.79-14.58.52-29.15,1.1-43.73,1.28C193.79,585.87,182,586.69,171,583Z"/><path class="cls-5" d="M165.6,597.22c2,3.18,6.79,3.12,10.11,1.37s5.89-4.67,9.21-6.4c4.46-2.32,9.74-2.23,14.77-2.09,8,.22,16,.46,23.69,2.64,7.93,2.26,15.64,6.61,23.83,5.74,1.43-.15,3-.56,3.77-1.77a5.67,5.67,0,0,0,.62-2.83l.26-7.16a6.4,6.4,0,0,0-.57-3.63,6,6,0,0,0-2.71-2.07c-11.67-5.65-25-6.7-37.92-7.15q-9.87-.33-19.76-.27c-5.59,0-12.3-.78-17.73.72C165.87,576.32,161.9,591.27,165.6,597.22Z"/><path class="cls-4" d="M238.84,409.73c-15.28-.14-29.13-10.23-44.41-10.47a11.5,11.5,0,0,0-5.4.93c-2.12,1.07-3.52,3.14-5.14,4.9-4.52,4.89-11.06,7.5-15.7,12.28-4.36,4.48-6.78,11.15-5.06,17.15s8.2,10.61,14.28,9.17a36.77,36.77,0,0,1,14.34-19.48,72.45,72.45,0,0,1,11.2-5.89c6.87-3.11,14.55-6.28,21.72-3.95a30.82,30.82,0,0,1,7.41,4l11.95,8C242.64,421,241.39,414.79,238.84,409.73Z"/><path class="cls-4" d="M175.65,438.37c-2,2.54.89,6.2.45,9.42-.3,2.13-2.06,3.76-2.79,5.79s-.36,4.43-.64,6.64a28.75,28.75,0,0,1-1.28,4.73,85.59,85.59,0,0,0-2.69,14L166,499a76.81,76.81,0,0,0-.85,9.08,26.69,26.69,0,0,1-.45,6.79c-.59,2.18-1.9,4.09-2.78,6.17s-1.3,4.6-.1,6.53c-4,3.32-5.18,9.85-2.39,14.23a7.81,7.81,0,0,1,1.23,2.27,5.93,5.93,0,0,1-.54,3.34l-2.71,7.2c-.69,1.85-.91,4.66,1,5.08a17,17,0,0,0-3.66,5.77,6.86,6.86,0,0,0,1,6.5,8.2,8.2,0,0,1,1.69,2.06,5.44,5.44,0,0,1-.19,3.24,11.87,11.87,0,0,0,1.47,9.33,8.36,8.36,0,0,0,8.42,3.61c5.41-1.22,10.27-3.14,15.72-2.14,11.75,2.15,23.53,4.32,34.91,8,13,4.14,25.56,10.22,39.13,11.5a3.77,3.77,0,0,0,2.61-.41,3.93,3.93,0,0,0,1.21-2.49L265,584.9a203,203,0,0,0,3.85-22c.48-4.78.62-9.59.75-14.39l1.08-38.23a38.06,38.06,0,0,0-2.2-16.62l-6.21-19.85c-3.55-11.33-11.69-21.37-14.59-32.88-1.83-7.29-3.19-15.1-8.11-20.78-7-8.1-19.14-9.36-29.76-8-4.8.62-9.64,1.71-13.79,4.2-4.8,2.87-8.33,7.41-11.75,11.83C181.4,431.84,178.53,434.78,175.65,438.37Z"/><path class="cls-6" d="M200.44,550.82c.88,3.78,2.72,7.25,3.84,11,1.89,6.21,1.73,12.9,3.61,19.11.79,2.6,1.93,5.1,2.5,7.77,1.32,6.21-.61,12.63-3,18.51s-5.31,11.68-6.09,18c-.55,4.44.24,9.45,3.66,12.33s8.71,2.79,13.34,2.39a13.86,13.86,0,0,0,4.84-1c3.54-1.68,5-5.86,5.86-9.69,2.77-12.82,2-26.1,1.17-39.2l-2.11-34.23c-.4-6.59-.84-13.32-2.87-19.65-.74-2.3-2-7-4.13-8.42s-8-1.52-10.6-1.64C198.35,525.47,198.48,542.36,200.44,550.82Z"/><path class="cls-5" d="M213.85,424.42c-2.47-1.29-5.59-.73-8,.71a24.59,24.59,0,0,0-6,5.8c-5.33,6.51-11,14-10.19,22.38.29,3.14,1.5,6.12,2.31,9.17,3.58,13.38-.38,27.53.08,41.37.26,8,2,15.87,3.73,23.68.36,1.6.93,3.44,2.47,4,1.16.4,2.41-.12,3.55-.55a28.38,28.38,0,0,1,26,3.27c2.86-1.53,1.79-6.36,1.15-9.54-1.91-9.46.68-19.22,3.83-28.34s6.91-18.23,7.43-27.86c.59-10.92-3-21.58-6.6-31.91-.78-2.25-1.63-4.62-3.44-6.18A13.59,13.59,0,0,0,225,428C221.19,426.91,217.35,426.26,213.85,424.42Z"/></g></g></svg>