<svg xmlns="http://www.w3.org/2000/svg" viewBox="0 0 1088 826.29"><defs><style>.cls-1{fill:#f2f2f2;}.cls-2{opacity:0.1;}.cls-2,.cls-6{isolation:isolate;}.cls-3{fill:#3f3d56;}.cls-4{fill:#c8102e;}.cls-5{fill:#a8a8a8;}.cls-6{opacity:0.2;}.cls-7{fill:#ffb9b9;}.cls-8{fill:#d0cde1;}.cls-9{fill:#2f2e41;}.cls-10{fill:#a0616a;}.cls-11{fill:#575a89;}</style></defs><g id="Layer_2" data-name="Layer 2"><g id="a6ee8617-cc99-4eb9-a93b-e1a7e83c9724"><path class="cls-1" d="M935,329.39C887.17,141.35,721.93,5.61,528,.17,425.45-2.71,317.56,31.29,239,150.29,98.57,363,247.63,510,351.55,579.87A650.12,650.12,0,0,1,486,700.67C556.14,784,691.18,887.47,852,725.29,968.56,607.75,966.84,454.64,935,329.39Z"/><polygon class="cls-2" points="719.6 507.39 818 409.29 719.6 311.19 749.6 281.29 878 409.29 749.6 537.29 719.6 507.39 719.6 507.39"/><path class="cls-2" d="M438.6,416.29h40v-40h-40Zm200.8-40h-40v40h40Zm-120.4,40h40v-40H519Z"/><polygon class="cls-2" points="384.4 506.39 285.9 408.29 384.3 310.19 354.3 280.29 226 408.29 354.4 536.29 384.4 506.39"/><path class="cls-3" d="M1088,752.29c0,16.57-243.56,74-544,74S0,768.86,0,752.29s243.56,14,544,14S1088,735.73,1088,752.29Z"/><path class="cls-2" d="M1088,752.29c0,16.57-243.56,74-544,74S0,768.86,0,752.29s243.56,14,544,14S1088,735.73,1088,752.29Z"/><ellipse class="cls-3" cx="544" cy="752.29" rx="544" ry="30"/><path class="cls-3" d="M632.7,608c0,64,40.16,115.82,89.79,115.82"/><path class="cls-4" d="M722.49,723.77c0-64.74,44.81-117.12,100.2-117.12"/><path class="cls-4" d="M665.23,613.76c0,60.8,25.61,110,57.26,110"/><path class="cls-3" d="M722.49,723.77c0-82.72,51.8-149.65,115.81-149.65"/><path class="cls-5" d="M703.6,724.59s12.73-.4,16.57-3.13,19.59-6,20.54-1.61,19.14,21.8,4.76,21.91-33.41-2.24-37.24-4.57S703.6,724.59,703.6,724.59Z"/><path class="cls-6" d="M745.73,740.24c-14.38.11-33.41-2.24-37.24-4.58-2.92-1.77-4.08-8.15-4.47-11.09l-.42,0s.8,10.27,4.63,12.6,22.86,4.69,37.24,4.57c4.15,0,5.58-1.51,5.5-3.69C750.4,739.39,748.81,740.21,745.73,740.24Z"/><path class="cls-7" d="M865.53,382.85s-30.79-23.37-33.12-14.8,22.59,28,22.59,28Z"/><path class="cls-2" d="M865.53,382.85s-30.79-23.37-33.12-14.8,22.59,28,22.59,28Z"/><path class="cls-8" d="M967.17,308.84s-36.61,65.44-37.39,74.79-.78,10.12-3.89,9.34-46-5.45-49.86-3.89-11.68-9.35-11.68-9.35-14.8,14.8-11.69,17.92,12.46,4.67,14,8.57,3.9,7.79,10.91,7,54.53,12.46,60.76,10.12,7.79-6.23,10.91-6.23,9.34-3.11,9.34-3.89,21.82-42.07,21.82-42.07S1006.12,315.07,967.17,308.84Z"/><path class="cls-2" d="M967.17,308.84s-36.61,65.44-37.39,74.79-.78,10.12-3.89,9.34-46-5.45-49.86-3.89-11.68-9.35-11.68-9.35-14.8,14.8-11.69,17.92,12.46,4.67,14,8.57,3.9,7.79,10.91,7,54.53,12.46,60.76,10.12,7.79-6.23,10.91-6.23,9.34-3.11,9.34-3.89,21.82-42.07,21.82-42.07S1006.12,315.07,967.17,308.84Z"/><path class="cls-9" d="M914.05,265.7a65.23,65.23,0,0,0,.2,12.42c1.19,8.95,5.31,18.28,1.41,26.64-1.41,3-3.8,5.67-5.1,8.74-2.76,6.5-.26,13.7-.64,20.62-.48,8.93-6.16,17.53-14.8,22.43,14.76.46,28.8-6.84,38.09-16.79s14.46-22.28,18.34-34.63a75.63,75.63,0,0,0,3.81-17.92,26.08,26.08,0,0,0-1.21-10.38,39.46,39.46,0,0,0-5.35-9.13c-2.32-3.27-4.71-6.6-8.14-9-4.23-3-12.38-6-18-5.57C915.79,253.63,914.34,260.93,914.05,265.7Z"/><path class="cls-7" d="M936.79,290.15s8.57,30.38,1.56,39,42.07-3.9,42.07-3.9S956.27,301.05,968,285.47Z"/><path class="cls-2" d="M936.79,290.15s8.57,30.38,1.56,39,42.07-3.9,42.07-3.9S956.27,301.05,968,285.47Z"/><polygon class="cls-4" points="719.6 488.39 818 390.29 719.6 292.19 749.6 262.29 878 390.29 749.6 518.29 719.6 488.39 719.6 488.39"/><polygon class="cls-7" points="908.75 695.22 908.75 717.81 920.43 731.83 930.56 727.16 927.44 694.44 908.75 695.22"/><path class="cls-9" d="M913.42,716.25s-3.11-10.9-8.57-3.11-10.9,24.93-14,25.7-24.93,24.93-3.11,24.93,28.82-10.12,28.82-10.12,21.81-8.57,21.81-10.13-3.12-30.38-4.67-30.38-2.34,5.45-6.24,5.45S913.42,716.25,913.42,716.25Z"/><polygon class="cls-7" points="960.94 699.12 960.16 720.15 978.86 727.94 978.86 697.56 960.94 699.12"/><path class="cls-9" d="M981.19,720.15s-10.12-10.91-15.58-8.57a55.49,55.49,0,0,0-7.79,3.89s-3.11,10.13-4.67,18.7-2.34,12.46-3.89,15.58-3.12,14.8,12.46,16.36,20.25-7,20.25-7l3.9-20.26S984.31,720.15,981.19,720.15Z"/><path class="cls-9" d="M918.88,474.77s-22.6,50.63-19.48,96.59c0,0-7.79,17.92-3.12,46s10.91,84.13,10.91,84.13,21,2.34,22.59-1.56c0,0,1.56-38.94,3.12-40.5s-.78-37.39-3.12-44.4,21.81-76.35,21.81-76.35l-6.23-86.46Z"/><path class="cls-2" d="M918.88,474.77s-22.6,50.63-19.48,96.59c0,0-7.79,17.92-3.12,46s10.91,84.13,10.91,84.13,21,2.34,22.59-1.56c0,0,1.56-38.94,3.12-40.5s-.78-37.39-3.12-44.4,21.81-76.35,21.81-76.35l-6.23-86.46Z"/><path class="cls-9" d="M912.64,471.65l14.8,31.94s7,72.45,10.91,81.79c0,0,1.56,26.49,8.57,35.06s12.46,84.13,12.46,84.13,19.48,5.45,21,0,6.23-42.85,6.23-42.85,1.56-31.93-7-53,10.12-96.59,10.12-96.59,19.48-36.61-8.57-66.22Z"/><circle class="cls-7" cx="953.93" cy="267.56" r="31.94"/><path class="cls-8" d="M983.53,315.85s-33.5,0-38.17,3.9a6.22,6.22,0,0,1-8.57,0s-11.68.78-14.8,10.12-12.46,21.82-12.46,21.82-14,10.12-6.23,36.61,1.55,69.33,1.55,69.33-6.23,9.35,0,13.24,8.57,5.45,7.79,8.57,70.89-25.71,70.89-31.16-1.56-10.13,0-12.46,3.12-6.23,1.56-10.13,1.56-4.67.78-8.57,3.89-32.72,7-45.18S995.22,316.63,983.53,315.85Z"/><path class="cls-7" d="M865.53,392.2s-30.79-23.38-33.12-14.81S855,405.44,855,405.44Z"/><path class="cls-8" d="M967.17,319.75s-36.61,65.43-37.39,74.78-.78,10.13-3.89,9.35-46-5.45-49.86-3.9-11.68-9.34-11.68-9.34-14.8,14.8-11.69,17.91,12.46,4.68,14,8.57,3.9,7.79,10.91,7,54.53,12.47,60.76,10.13,7.79-6.23,10.91-6.23,9.34-3.12,9.34-3.9,21.82-42.06,21.82-42.06S1006.12,326,967.17,319.75Z"/><path class="cls-9" d="M938.11,288c-.44-3.16-2.06-6-2.89-9.12a18.9,18.9,0,0,1,2.16-14.69c4.58-7.4,13.57-10.68,19.84-16.71.13,3.07,2.27,5.7,4.62,7.67s5.06,3.58,7.06,5.92a23.37,23.37,0,0,1,4.11,8.33,29.34,29.34,0,0,1,1.62,10.91A13.69,13.69,0,0,1,969.9,290c-2.34,1.84-5.6,2.9-6.73,5.65a9.66,9.66,0,0,0-.38,4.27c.54,8.57,1,17.3-1,25.64s-7,16.41-14.71,20.11c6.37.46,12.87.9,19-.71s12.08-5.66,14.21-11.68c1.06-3,1.15-6.27,2.65-9,3.78-7,14.21-7.34,19.34-13.44,2-2.44,3-5.59,3.78-8.7,4.33-18.26,1.28-37.65-5.3-55.23-2.28-6.06-5.1-12.16-10-16.42-4.15-3.62-9.44-5.62-14.68-7.32-7.64-2.49-15.51-4.53-23.54-4.79a29.83,29.83,0,0,0-10.33,1.21,30.4,30.4,0,0,0-9.09,5.18c-12.58,9.78-21.15,25.43-20,41.33.69,9.62,4.76,18.72,10,26.82,1.83,2.83,6.16,8.87,10.18,7.09C937,298.33,938.59,291.38,938.11,288Z"/><path class="cls-4" d="M438.6,397.29h40v-40h-40Zm200.8-40h-40v40h40Zm-120.4,40h40v-40H519Z"/><ellipse class="cls-9" cx="206.21" cy="211.84" rx="33.66" ry="26.25"/><path class="cls-10" d="M211.93,392.58s30.29,2,35.67-2,28.28,5.38,30.3,10.77-32.32,6.06-37.7,6.06-31,8.07-31,8.07Z"/><path class="cls-9" d="M149.55,706.14s-14.11,35.6-6.75,39.89,84.7,1.23,84.7,1.23,12.89-8-1.84-13.5c0,0-12.27-.62-20.25-5.53s-17.19-14.11-17.19-14.11-.61-13.51-5.52-10.44a12.64,12.64,0,0,0-5.53,8.6Z"/><path class="cls-2" d="M149.55,706.14s-14.11,35.6-6.75,39.89,84.7,1.23,84.7,1.23,12.89-8-1.84-13.5c0,0-12.27-.62-20.25-5.53s-17.19-14.11-17.19-14.11-.61-13.51-5.52-10.44a12.64,12.64,0,0,0-5.53,8.6Z"/><polygon class="cls-4" points="384.4 487.39 285.9 389.29 384.3 291.19 354.3 261.29 226 389.29 354.4 517.29 384.4 487.39"/><path class="cls-9" d="M127.79,717s-15.49,39-7.41,43.75,92.89,1.35,92.89,1.35,14.14-8.75-2-14.81c0,0-13.46-.67-22.21-6.06s-18.85-15.48-18.85-15.48-.67-14.81-6.06-11.44a13.84,13.84,0,0,0-6,9.42Z"/><path class="cls-9" d="M207.22,469.31l-9.43,84.82s-3.36,40.39-13.46,49.14c0,0,0,12.79-3.37,16.83l-4.71,53.17s6.73,19.53,6.06,22.89,2.69,14.14,2,15.48-32.31,0-32.31,0l6.73-108.37,20.87-150.78Z"/><path class="cls-2" d="M207.22,469.31l-9.43,84.82s-3.36,40.39-13.46,49.14c0,0,0,12.79-3.37,16.83l-4.71,53.17s6.73,19.53,6.06,22.89,2.69,14.14,2,15.48-32.31,0-32.31,0l6.73-108.37,20.87-150.78Z"/><path class="cls-9" d="M190.39,466.62S183,536,179.62,550.76a190.9,190.9,0,0,0-4,29.62s-.68,21.54-6.73,27.6a18.16,18.16,0,0,0-5.39,13.46s-6.06,68-2.69,76.07,6.73,14.81,3.36,20.19-40.38,5.39-40.38,1.35,0-7.41-2-9.43,0-14.8,0-14.8-8.08-59.91-.68-77.42,10.77-65.29,10.77-65.29-5.38-54.52-12.11-63.28,1.34-39.71,1.34-39.71Z"/><path class="cls-10" d="M171.44,251.31c.78,1.78,2.65,2.78,4.36,3.72,9.88,5.44,18.15,13.34,26.3,21.14a30.9,30.9,0,0,1,1.23-20.89c1-2.25,2.25-4.67,1.55-7-.51-1.73-2-3-3.41-4.08a106.69,106.69,0,0,0-10.41-7.1c-2.52-1.51-7.7-5.52-10.6-5.09-.15,3.91-.23,7.4-1.94,11.06C178.11,243.9,171.73,252,171.44,251.31Z"/><circle class="cls-10" cx="205.87" cy="232.37" r="27.6"/><path class="cls-11" d="M207.22,297.66s4.71-23.56-8.76-31.63-28.94-17.51-28.94-17.51-4.71-.67-6.73,9.43c0,0-38.37,7.4-42.41,43.75s2.69,89.53,2.69,89.53-6,46.45-13.46,71.35c0,0-6.06,5.39,20.87-2.69s74,22.89,74,22.89,4.72-4.72,4.72-8.08,5.38-22.89,5.38-22.89,4.71-82.79,6.73-92.22S213.27,299,207.22,297.66Z"/><path class="cls-9" d="M199.37,235.21a11.48,11.48,0,0,1,5.41-1.44,10.32,10.32,0,0,0,5.35-1.59c2.61-2,2.8-5.87,4.71-8.55,2.76-3.88,8.27-4.34,13-4.15,2.91.12,6,.29,8.49-1.28s3.65-4.66,4.5-7.52c1-3.39,1.65-7.53-.83-10-1.73-1.75-4.45-2.09-6.37-3.63s-2.8-4.17-3.88-6.48a17.52,17.52,0,0,0-5.64-7.06c-3.61-2.51-8.23-3.07-12.63-3s-8.82.62-13.19.08c-3.58-.44-7.15-1.63-10.71-1.1-4.55.67-8.31,4.1-10.55,8.11s-3.2,8.59-4.13,13.09l-2.54,12.24c-.78,3.8-1.57,7.69-1,11.52,1.26,7.94,8.28,14.25,8.76,22.27a13.66,13.66,0,0,1,8.35-9.92,2.62,2.62,0,0,1,1.7-.21c.69.22,1.1.92,1.54,1.51,1.15,1.53,4.78,3.85,6.83,2.77C198.43,239.83,197.06,236.78,199.37,235.21Z"/><path class="cls-10" d="M129.8,360.94s-4.71,29.62,14.81,26.92c0,0,10.1-1.34,11.45,0s51.16-7.4,57.89-14.8c0,0,8.07-2.7,12.11,1.34s44.43,8.08,32.31-4-31-14.81-31-14.81l-25.58,1.35s-13.46,4-21.54,0-31-2.69-31-2.69Z"/><path class="cls-11" d="M157.4,267.37s-30.29,3.37-30.29,47.12v55.87s16.83-7.4,20.2-6.73,16.82-8.75,16.82-8.75,15.49-36.35,14.14-46.45S177.6,268.72,157.4,267.37Z"/><ellipse class="cls-9" cx="205.87" cy="215.2" rx="25.92" ry="13.46"/><ellipse class="cls-9" cx="181.64" cy="217.56" rx="9.09" ry="22.55"/></g></g></svg>