<svg xmlns="http://www.w3.org/2000/svg" viewBox="0 0 677.77 623.71"><defs><style>.cls-1{fill:#3f3d56;}.cls-2{fill:#e6e6e6;}.cls-3{fill:#ccc;}.cls-4{fill:#ef2b2d;}.cls-5{fill:#fff;}.cls-6{fill:#2f2e41;}.cls-7{fill:#a0616a;}.cls-8{fill:#ffb8b8;}</style></defs><g id="Layer_2" data-name="Layer 2"><g id="aba92bf9-15c7-4666-a277-8a6e60b3ba94"><path class="cls-1" d="M480.35,572H171.16a27.72,27.72,0,0,1-27.69-27.7V425.45c-.64.73-1.31,1.45-2,2.15V544.3A29.73,29.73,0,0,0,171.16,574H481.22C480.92,573.34,480.63,572.67,480.35,572ZM143.47,132.7A27.72,27.72,0,0,1,171.16,105h103c-.19-.67-.37-1.33-.54-2H171.16a29.73,29.73,0,0,0-29.69,29.7V314.9c.69.7,1.35,1.42,2,2.15Zm415.16,23.36L494,104.89a8.73,8.73,0,0,0-5.42-1.89H431.12c-.16.67-.34,1.34-.53,2h58a6.74,6.74,0,0,1,4.18,1.45l64.6,51.18a5.15,5.15,0,0,1,2,4.06V459.52c.67,0,1.34.07,2,.12V161.69a7.11,7.11,0,0,0-2.72-5.63Z"/><path class="cls-2" d="M557.78,158.7H505.65a14.35,14.35,0,0,1-14.35-14.35h0v-38.5a.9.9,0,0,1,.9-.89,1,1,0,0,1,.56.19l65.57,51.95a.89.89,0,0,1,.15,1.26A.88.88,0,0,1,557.78,158.7Z"/><path class="cls-1" d="M557.78,159.7H505.65a15.37,15.37,0,0,1-15.35-15.35v-38.5a1.9,1.9,0,0,1,3.08-1.48L559,156.32a1.89,1.89,0,0,1,.3,2.66,1.87,1.87,0,0,1-1.48.72ZM492.3,106.07v38.28a13.37,13.37,0,0,0,13.35,13.35h51.83Z"/><path class="cls-3" d="M454.31,225.06H301a7.18,7.18,0,1,1,0-14.35H454.31a7.18,7.18,0,0,1,0,14.35Z"/><path class="cls-3" d="M483.9,249.27H301a7.17,7.17,0,1,1,0-14.34h183a7.17,7.17,0,1,1,0,14.34Z"/><path class="cls-3" d="M454.31,333.57H301a7.18,7.18,0,0,1,0-14.35H454.31a7.18,7.18,0,0,1,0,14.35Z"/><path class="cls-3" d="M483.9,357.78H301a7.18,7.18,0,1,1,0-14.35h183a7.18,7.18,0,0,1,0,14.35Z"/><path class="cls-3" d="M454.31,442.07H301a7.17,7.17,0,1,1,0-14.34H454.31a7.17,7.17,0,1,1,0,14.34Z"/><path class="cls-3" d="M483.9,466.29H301a7.18,7.18,0,0,1,0-14.35H483.9a7.18,7.18,0,0,1,0,14.35Z"/><circle id="a4ecd73b-08d8-48cc-a4e8-61145e733de3" class="cls-4" cx="237.11" cy="229.99" r="25.36" transform="translate(-27.9 427.2) rotate(-80.78)"/><path id="e1436a23-a259-49e2-b8fe-799bdd526759" class="cls-5" d="M234.59,239.67a2.66,2.66,0,0,1-1.58-.53l0,0-6-4.56a2.65,2.65,0,0,1,3.22-4.21h0l3.86,3,9.12-11.9a2.65,2.65,0,0,1,3.71-.49h0l-.06.08.06-.08a2.65,2.65,0,0,1,.49,3.71l-10.73,14a2.62,2.62,0,0,1-2.1,1Z"/><circle id="be8a52d2-63f9-435f-813d-f0401f75b826" class="cls-2" cx="237.11" cy="338.5" r="25.36"/><path id="e3c7ab69-76f6-4704-bab0-1a6933653e72" class="cls-5" d="M234.59,348.17a2.65,2.65,0,0,1-1.58-.52l0,0-6-4.56a2.65,2.65,0,0,1,3.23-4.21l3.86,3,9.12-11.9a2.65,2.65,0,0,1,3.71-.49h0l-.06.08.06-.08a2.66,2.66,0,0,1,.49,3.72l-10.73,14a2.65,2.65,0,0,1-2.1,1Z"/><circle id="fc7f6027-3824-4a0f-8274-ead5998d3b8e" class="cls-2" cx="237.11" cy="447.01" r="25.36"/><path id="a068fab7-b499-433d-8534-b02b75008e19" class="cls-5" d="M234.59,456.68a2.59,2.59,0,0,1-1.58-.53l0,0-6-4.56a2.65,2.65,0,1,1,3.23-4.2l3.86,3,9.12-11.9a2.65,2.65,0,0,1,3.71-.49h0l-.06.08.06-.08a2.65,2.65,0,0,1,.49,3.71l-10.73,14a2.63,2.63,0,0,1-2.1,1Z"/><path class="cls-4" d="M593.61,614.32q-2.15,1.13-4.37,2.13-2,.91-4.11,1.71l-1.54.59A82.39,82.39,0,0,1,571,622.21c-2.11.41-4.26.74-6.43,1-1.79.2-3.59.34-5.42.43-1.3.06-2.61.09-3.92.09a82.79,82.79,0,0,1-15.47-1.45c-1.33-.24-2.63-.52-3.93-.84a82.1,82.1,0,0,1-18.15-6.7l-1.56-.8c-.76-.41-1.51-.83-2.26-1.28.36-.49.75-1,1.15-1.46a49,49,0,0,1,68.84-7.36,49.94,49.94,0,0,1,8.63,9C592.9,613.3,593.26,613.81,593.61,614.32Z"/><circle class="cls-6" cx="557.12" cy="533.25" r="40.53"/><circle class="cls-7" cx="553.43" cy="547.37" r="30.17"/><path class="cls-6" d="M585.12,528.39a41,41,0,0,1-23.44,7.25,25.08,25.08,0,0,0,10,4.1,82.72,82.72,0,0,1-33.79.19,21.9,21.9,0,0,1-7.07-2.43,9,9,0,0,1-4.37-5.84c-.74-4.24,2.56-8.08,6-10.68a44.17,44.17,0,0,1,37.12-7.42c4.15,1.08,8.3,2.89,11,6.22s3.49,8.46.93,11.89Z"/><path class="cls-1" d="M561.35,457.78c-.66,0-1.33-.09-2-.12-1.35-.07-2.71-.1-4.08-.1A83.07,83.07,0,0,0,478.35,572c.27.67.55,1.34.85,2A83.66,83.66,0,0,0,512,611.56l.53.31c.45.27.89.53,1.33.77.75.45,1.5.87,2.26,1.28l1.55.8a82.18,82.18,0,0,0,18.16,6.7c1.3.32,2.6.6,3.93.84a82.79,82.79,0,0,0,15.47,1.45c1.31,0,2.61,0,3.92-.09,1.82-.08,3.63-.23,5.42-.43q3.25-.36,6.43-1a82.71,82.71,0,0,0,12.55-3.46l1.54-.59c1.4-.53,2.76-1.1,4.11-1.71s2.94-1.38,4.37-2.13a83.89,83.89,0,0,0,34.19-33.2l.12-.22a83,83,0,0,0-66.57-123.12Zm73.72,98.1a80.5,80.5,0,0,1-8.67,23.94l-.21.38a81.36,81.36,0,0,1-33.67,32.6q-2.13,1.11-4.31,2.08c-1.21.54-2.45,1.06-3.7,1.54-.52.2-1.06.41-1.59.59a78.26,78.26,0,0,1-10.83,3.1,76.69,76.69,0,0,1-8.26,1.3c-1.71.19-3.44.32-5.19.38-1.12.05-2.24.08-3.37.08a80.9,80.9,0,0,1-15-1.4,77.87,77.87,0,0,1-8.89-2.18,81.53,81.53,0,0,1-12.91-5.23c-.48-.25-1-.5-1.43-.76-.68-.36-1.36-.73-2-1.12-.5-.28-1-.58-1.49-.87l-.86-.52A81.84,81.84,0,0,1,481.22,574c-.3-.66-.59-1.33-.87-2a81.22,81.22,0,0,1,74.92-112.59c1.37,0,2.73,0,4.08.11.67,0,1.34.07,2,.12a81.27,81.27,0,0,1,73.72,96.24Z"/><path class="cls-6" d="M536.59,493.28c-.44-4.59-6.05-7.41-10.45-6s-7.27,5.81-8.15,10.33a14.88,14.88,0,0,0,2,11.19,10.19,10.19,0,0,0,10.11,4.38c4.35-.92,7.36-5.17,8.22-9.52s0-8.86-.85-13.21Z"/><path class="cls-6" d="M598.42,499.83c-.44-4.59-6.06-7.41-10.45-6s-7.28,5.81-8.15,10.34a14.77,14.77,0,0,0,2,11.18c2.22,3.2,6.3,5.2,10.11,4.38,4.34-.92,7.35-5.16,8.21-9.52s0-8.85-.84-13.21Z"/><path class="cls-4" d="M396.69,152.25a82.22,82.22,0,0,1-86.44,1.37,50.11,50.11,0,0,1,8.68-11.68,49.35,49.35,0,0,1,77.45,9.76C396.48,151.88,396.59,152.06,396.69,152.25Z"/><circle class="cls-6" cx="349.86" cy="67.31" r="40.8"/><circle class="cls-8" cx="349.57" cy="81.52" r="30.37"/><path class="cls-6" d="M321.67,62.42a41.26,41.26,0,0,0,23.6,7.29,25.2,25.2,0,0,1-10,4.13,83.31,83.31,0,0,0,34,.19,22.06,22.06,0,0,0,7.12-2.45,9,9,0,0,0,4.39-5.87c.75-4.27-2.57-8.14-6-10.75a44.47,44.47,0,0,0-37.36-7.47c-4.18,1.08-8.36,2.9-11.07,6.26s-3.52,8.52-.93,12Z"/><path class="cls-1" d="M352.36,0a83.17,83.17,0,0,0-83.08,83.07A82.16,82.16,0,0,0,271.74,103c.17.67.34,1.34.52,2a83.07,83.07,0,0,0,160.25,0c.18-.67.35-1.33.51-2A83.12,83.12,0,0,0,352.36,0Zm78.76,103c-.16.67-.34,1.34-.53,2a81.21,81.21,0,0,1-156.41,0c-.19-.67-.37-1.33-.54-2a80.23,80.23,0,0,1-2.51-19.93,81.23,81.23,0,1,1,160,19.93Z"/><path class="cls-4" d="M127.32,440.38a82.2,82.2,0,0,1-86.44,1.38c.14-.27.29-.54.45-.8a49.35,49.35,0,0,1,85.52-1.37c.06.08.11.17.16.25Z"/><path class="cls-6" d="M121.29,355.44a40.61,40.61,0,1,1,0-.39Z"/><path class="cls-7" d="M112.46,380.79a31.47,31.47,0,0,1-1.61,3.43A30.37,30.37,0,1,1,98.75,343h0A30.38,30.38,0,0,1,112.46,380.79Z"/><path class="cls-1" d="M143.47,314.34c-.64-.7-1.31-1.39-2-2.06a83,83,0,1,0,0,118c.68-.67,1.35-1.35,2-2.05A83,83,0,0,0,143.47,314.34Zm-2,113.26a81.7,81.7,0,0,1-14.62,12l0,0A81.3,81.3,0,0,1,41.35,441h0A81.22,81.22,0,1,1,141.47,314.9c.69.7,1.35,1.42,2,2.15a81.2,81.2,0,0,1,0,108.4C142.83,426.18,142.16,426.9,141.47,427.6Z"/><path class="cls-6" d="M113.56,321.56A21.48,21.48,0,0,0,93.75,311c-4.15.31-8.1,1.84-12,3.35l-19.71,7.69c-5.1,2-10.68,4.42-12.89,9.43-2.06,4.64-.52,10,1,14.85l7.37,23c1-5.17,2-10.38,4.18-15.19S67.29,344.9,72,342.5c5.12-2.63,11.15-2.57,16.89-2.3,8.14.39,17,1.43,22.77,7.17a23.62,23.62,0,0,1,6,11.72,70.24,70.24,0,0,1,1.26,13.26,109.51,109.51,0,0,0,8.4-18,44.5,44.5,0,0,0,3.12-14.58c0-5-1.37-10.14-4.7-13.86s-8.75-5.73-13.52-4.26"/><path class="cls-2" d="M51.42,211.84l-2,0c0-2,.09-4,.18-6l2,.09C51.5,207.86,51.45,209.86,51.42,211.84Z"/><path class="cls-2" d="M52.47,194.46l-2-.22c.42-3.82,1-7.68,1.63-11.46l2,.35C53.43,186.86,52.88,190.68,52.47,194.46Zm3.94-22.54-1.94-.47c.9-3.73,1.94-7.49,3.09-11.16l1.91.6C58.34,164.52,57.31,168.23,56.41,171.92Zm6.83-21.85-1.87-.72c1.38-3.59,2.9-7.18,4.51-10.67l1.82.84C66.1,143,64.6,146.52,63.24,150.07Zm9.59-20.79-1.76-1c1.83-3.37,3.8-6.74,5.85-10l1.69,1.06c-2,3.22-4,6.55-5.78,9.89ZM85,109.9l-1.62-1.17c2.25-3.12,4.63-6.2,7.08-9.17L92,100.83c-2.42,2.94-4.77,6-7,9.07ZM99.57,92.24l-1.46-1.37c2.63-2.8,5.39-5.56,8.19-8.19l1.37,1.46c-2.78,2.6-5.5,5.33-8.1,8.1Zm16.69-15.66L115,75c3-2.44,6.05-4.82,9.16-7.07l1.17,1.62c-3.08,2.22-6.13,4.58-9.06,7Zm18.55-13.39-1.07-1.69c3.26-2,6.62-4,10-5.84l1,1.76c-3.33,1.81-6.66,3.75-9.87,5.77Zm20.1-10.9-.84-1.81c3.49-1.61,7.07-3.13,10.65-4.51l.72,1.87c-3.54,1.37-7.08,2.86-10.53,4.45Zm21.33-8.21-.6-1.91c3.66-1.15,7.42-2.19,11.15-3.09l.47,1.94c-3.69.9-7.4,1.92-11,3.06Zm22.23-5.4-.35-2c3.78-.66,7.64-1.21,11.46-1.63l.22,2c-3.78.41-7.59,1-11.33,1.61Z"/><path class="cls-2" d="M221.29,36.18l-.09-2c2-.09,4-.14,6-.17l0,2C225.28,36,223.27,36.09,221.29,36.18Z"/><polygon class="cls-2" points="58.81 205.41 57.38 204.01 50.49 211.06 43.96 203.67 42.46 205 50.41 214 58.81 205.41"/><polygon class="cls-2" points="220.82 43.4 219.42 41.97 226.47 35.08 219.08 28.55 220.41 27.05 229.41 35 220.82 43.4"/><path class="cls-2" d="M520,56c-1.76-.93-3.54-1.84-5.32-2.73l.89-1.79c1.8.9,3.59,1.81,5.36,2.75Z"/><path class="cls-2" d="M655.94,425.08l-1.85-.75c1.5-3.68,2.95-7.42,4.3-11.14l1.88.68C658.91,417.62,657.46,421.39,655.94,425.08Zm8.2-22.58-1.91-.61c1.2-3.77,2.34-7.63,3.38-11.44l1.93.52C666.49,394.82,665.35,398.7,664.14,402.5Zm6.32-23.19-2-.44c.89-3.87,1.71-7.8,2.43-11.69l2,.37c-.73,3.91-1.55,7.87-2.45,11.76Zm4.4-23.62-2-.29c.56-3.92,1-7.91,1.45-11.85l2,.21c-.4,4-.89,8-1.46,11.93Zm2.43-23.91-2-.12c.23-4,.39-8,.47-11.93l2,0c-.08,4-.24,8-.48,12Zm.46-24-2,0c0-1.74-.09-3.48-.16-5.21-.09-2.23-.21-4.49-.35-6.72l2-.12c.14,2.24.26,4.51.35,6.76.07,1.74.12,3.49.16,5.25ZM674.25,284c-.42-3.94-.91-7.92-1.49-11.84l2-.29c.58,3.94,1.08,8,1.5,11.92Zm-3.45-23.62c-.73-3.89-1.55-7.82-2.44-11.68l1.95-.45c.89,3.89,1.72,7.85,2.46,11.77Zm-5.36-23.26c-1.05-3.82-2.19-7.67-3.39-11.44L664,225c1.21,3.8,2.36,7.68,3.41,11.53Zm-7.23-22.75c-1.36-3.72-2.81-7.47-4.31-11.13l1.85-.76c1.51,3.69,3,7.46,4.33,11.21Zm-9.07-22.09c-1.65-3.6-3.4-7.22-5.2-10.75l1.79-.91c1.81,3.56,3.57,7.2,5.23,10.83ZM638.31,171c-1.94-3.46-4-6.92-6.06-10.3l1.7-1c2.1,3.4,4.15,6.89,6.1,10.37Zm-12.54-20.33c-2.21-3.29-4.53-6.58-6.88-9.77l1.61-1.18c2.37,3.21,4.7,6.52,6.93,9.83ZM611.61,131.4c-2.48-3.1-5.06-6.18-7.66-9.17l1.51-1.32c2.62,3,5.21,6.12,7.71,9.24Zm-15.7-18c-2.73-2.88-5.55-5.74-8.39-8.5l1.39-1.44c2.86,2.78,5.71,5.67,8.46,8.57ZM578.78,96.72c-3-2.64-6-5.27-9.08-7.79L571,87.39c3.08,2.54,6.15,5.18,9.13,7.84ZM560.32,81.53c-3.16-2.39-6.41-4.75-9.67-7l1.14-1.64c3.28,2.28,6.56,4.65,9.73,7.05ZM540.7,67.92c-3.34-2.12-6.77-4.2-10.21-6.19l1-1.73c3.46,2,6.92,4.1,10.28,6.23Z"/><path class="cls-2" d="M648.59,441.57l-1.8-.87q1.31-2.7,2.54-5.41l1.82.83C650.32,437.94,649.46,439.76,648.59,441.57Z"/><polygon class="cls-2" points="517.22 62.69 519.11 62.03 515.82 52.73 525.34 50.13 524.8 48.2 513.22 51.37 517.22 62.69"/><polygon class="cls-2" points="642.99 431.68 644.89 431.05 647.97 440.42 657.09 436.67 657.85 438.52 646.74 443.09 642.99 431.68"/></g></g></svg>