<svg xmlns="http://www.w3.org/2000/svg" xmlns:xlink="http://www.w3.org/1999/xlink" viewBox="0 0 1103.83 707.8"><defs><style>.cls-1,.cls-3,.cls-9{fill:#c8102e;}.cls-1,.cls-11,.cls-2{opacity:0.1;}.cls-1,.cls-11,.cls-14,.cls-17,.cls-6,.cls-7,.cls-8,.cls-9{isolation:isolate;}.cls-4{fill:#fff;}.cls-5{fill:#3f3d56;}.cls-6{fill:#fa5959;}.cls-6,.cls-7,.cls-8{opacity:0.8;}.cls-7{fill:#fed253;}.cls-8{fill:#8ccf4d;}.cls-14,.cls-9{opacity:0.2;}.cls-10{fill:none;stroke:#3f3d56;stroke-miterlimit:10;}.cls-12{fill:#46455b;}.cls-13{fill:#a8a8a8;}.cls-15{fill:url(#linear-gradient);}.cls-16{fill:#65617d;}.cls-17{opacity:0.05;}.cls-18{fill:#ee8e9e;}.cls-19{fill:#e3e8f4;}.cls-20{fill:#e6e8ec;}.cls-21{fill:#565387;}</style><linearGradient id="linear-gradient" x1="891.82" y1="-80.77" x2="891.82" y2="187.17" gradientTransform="matrix(1, 0, 0, -1, -48.1, 613.9)" gradientUnits="userSpaceOnUse"><stop offset="0" stop-color="gray" stop-opacity="0.25"/><stop offset="0.54" stop-color="gray" stop-opacity="0.12"/><stop offset="1" stop-color="gray" stop-opacity="0.1"/></linearGradient></defs><g id="Layer_2" data-name="Layer 2"><g id="a6dc9487-50e2-4fb9-af91-bf1b7118d463"><ellipse class="cls-1" cx="843.42" cy="664.8" rx="192" ry="43"/><g class="cls-2"><path class="cls-3" d="M625.05,26.79c0,156.1,97.93,282.41,219,282.41"/></g><path class="cls-1" d="M627.45,130c-70.75.54-138.73-15.45-203.73-33.27s-129.47-37.86-198.79-46c-44.62-5.27-95.4-4.44-130.47,16-33.75,19.66-43.74,51.89-48.67,81.63-3.71,22.38-5.52,45.86,7.54,66.22,9,14.13,24.6,25.73,35.6,39.19,38.26,46.83,14.53,107.1-23.41,155.51-17.79,22.71-38.6,44.5-52.1,68.48s-19.18,51.1-5.79,74.6c13.28,23.28,43.54,40,76.09,51.45C149.85,626.9,226.93,631.5,302,633c166.14,3.25,332.71-6.63,498.83-16.5,61.47-3.66,123.22-7.34,183.48-17.15,33.46-5.45,67.92-13.44,91.74-30.61,30.25-21.8,36.68-57.11,15-82.33-36.37-42.29-133-49.68-159-95.53-14.31-25.24-1.57-54.37,17-78.92,39.94-52.64,108.35-100,110-158.62,1.1-40.25-34-79.28-86.68-96.43-55.25-18-130.79-12.79-169.85,21.61C762.27,113.9,689.93,129.56,627.45,130Z"/><path class="cls-4" d="M946.93,31.19V549.6c0,15.42-14.88,28-33.24,28H210.27c-18.36,0-33.23-12.54-33.23-28V31.19C177,15.74,191.91,0,210.27,0L913.6,1.71C931.93,1.71,946.93,15.74,946.93,31.19Z"/><path class="cls-5" d="M946.93,31.35v24H177v-24A31.35,31.35,0,0,1,208.38,0H915.53a31.36,31.36,0,0,1,31.4,31.32Z"/><circle class="cls-6" cx="214.33" cy="27.67" r="11.08"/><circle class="cls-7" cx="246.56" cy="27.67" r="11.08" transform="translate(172.77 264.55) rotate(-79.1)"/><circle class="cls-8" cx="278.79" cy="27.67" r="11.08"/><rect class="cls-9" x="457.03" y="170.7" width="70.01" height="33.22" rx="8.57"/><rect class="cls-9" x="598.87" y="170.7" width="70.01" height="33.22" rx="8.57"/><polyline class="cls-10" points="491.85 203.17 561.92 294.68 634.12 202.74"/><rect class="cls-11" x="508.4" y="291.75" width="107.03" height="50.79" rx="8.57"/><rect class="cls-3" x="510.58" y="292.79" width="102.68" height="48.73" rx="8.57"/><line class="cls-10" x1="492.32" y1="170.7" x2="491.41" y2="138.35"/><polyline class="cls-10" points="675.25 139.93 634.12 170.7 590.85 139.93"/><rect class="cls-9" x="456.64" y="106.7" width="70.01" height="33.22" rx="8.57"/><rect class="cls-9" x="640.24" y="106.7" width="70.01" height="33.22" rx="8.57"/><rect class="cls-9" x="555.84" y="106.7" width="70.01" height="33.22" rx="8.57"/><line class="cls-10" x1="561.92" y1="341.51" x2="561.65" y2="430.01"/><polyline class="cls-10" points="462.45 493.11 561.46 462.48 660.86 492.89"/><rect class="cls-9" x="526.65" y="430.01" width="70.01" height="33.22" rx="8.57"/><rect class="cls-9" x="832.2" y="230.63" width="33.22" height="70.01" rx="8.57"/><rect class="cls-9" x="832.2" y="340.26" width="33.22" height="70.01" rx="8.57"/><rect class="cls-9" x="625.85" y="492.66" width="70.01" height="33.22" rx="8.57"/><rect class="cls-9" x="427.45" y="492.67" width="70.01" height="33.22" rx="8.57"/><rect class="cls-9" x="528.39" y="492.67" width="70.01" height="33.22" rx="8.57"/><line class="cls-10" x1="801.03" y1="320.45" x2="832.19" y2="374.94"/><line class="cls-10" x1="735.14" y1="319.78" x2="767.85" y2="319.78"/><line class="cls-10" x1="613.26" y1="317.15" x2="702.54" y2="319.78"/><line class="cls-10" x1="832.19" y1="265.63" x2="801.18" y2="320.21"/><rect class="cls-9" x="702.54" y="284.57" width="33.22" height="70.01" rx="8.57"/><rect class="cls-9" x="767.81" y="285.44" width="33.22" height="70.01" rx="8.57"/><rect class="cls-9" x="258.42" y="230.62" width="33.22" height="70.01" rx="8.57"/><rect class="cls-9" x="258.42" y="340.26" width="33.22" height="70.01" rx="8.57"/><line class="cls-10" x1="322.81" y1="320.45" x2="291.64" y2="374.94"/><line class="cls-10" x1="388.69" y1="319.78" x2="355.99" y2="319.78"/><line class="cls-10" x1="510.58" y1="317.15" x2="421.3" y2="319.78"/><line class="cls-10" x1="291.64" y1="265.63" x2="322.65" y2="320.21"/><rect class="cls-9" x="388.08" y="284.58" width="33.22" height="70.01" rx="8.57"/><rect class="cls-9" x="322.81" y="285.44" width="33.22" height="70.01" rx="8.57"/><path class="cls-12" d="M108.05,501.9c0,50.24,31.52,90.9,70.47,90.9"/><path class="cls-3" d="M178.52,592.79c0-50.81,35.18-91.92,78.65-91.92"/><path class="cls-3" d="M133.59,506.45c0,47.72,20.1,86.34,44.93,86.34"/><path class="cls-12" d="M178.52,592.79c0-64.92,40.66-117.45,90.9-117.45"/><ellipse class="cls-1" cx="175.46" cy="607.19" rx="17.52" ry="2.96"/><path class="cls-13" d="M163.7,593.43s10-.31,13-2.45,15.37-4.71,16.12-1.27,15,17.11,3.73,17.2-26.22-1.76-29.22-3.59S163.7,593.43,163.7,593.43Z"/><path class="cls-14" d="M196.76,605.71c-11.28.09-26.21-1.75-29.22-3.59-2.29-1.39-3.2-6.39-3.51-8.7h-.33s.63,8.06,3.64,9.89,17.94,3.68,29.22,3.59c3.26,0,4.38-1.19,4.32-2.9C200.43,605.05,199.19,605.69,196.76,605.71Z"/><path class="cls-15" d="M956.25,648.79l-27.67-40.12s-.52-9.93-2.33-12.26-.39-7.48-.39-7.48,1.94-2.84.26-3.09-.26-6.58-.26-6.58l-.13-10.07s1.55-9.67.26-12a3.86,3.86,0,0,1,.13-4.13s1.55-5.55,0-7S925,536,925.34,529.17s-2.71-10.71-2.71-11.74-10.22-11.1-10.22-12-6.46-4.64-10.34-5.68-5.82-1.8-5.69-2.32-6.08-2.58-6.08-2.58-5.43-.38-7.5-3.09-8.4-3.5-8.57-3.52a3.49,3.49,0,0,0-.12-.54l-.12-.58c.49-.82.94-1.66,1.35-2.53l.36-.79a11,11,0,0,0,6.36-2,8.69,8.69,0,0,0,3.1-6.19,13.56,13.56,0,0,0-1.51-6.87c-1.14-2.33-2.8-4.73-2.23-7.25.25-1.09.9-2,1.24-3.11a8.17,8.17,0,0,0-.93-6.11c-1-1.87-2.34-3.52-3.43-5.34a20.91,20.91,0,0,1-2.73-7.54,11.7,11.7,0,0,0-1-4.11A7.4,7.4,0,0,0,872.3,433a22.65,22.65,0,0,0-13.9-4.21c-3.52.12-7,1.07-10.52.64a39.74,39.74,0,0,1-6.15-1.61c-4.33-1.28-9.34-1.81-13.11.67s-5.28,7.36-7.84,11.18c-2.27,3.38-5.58,6.21-7.3,9.79a.33.33,0,0,1,0-.21,12.68,12.68,0,0,0-1,2.61c-.66,2.81-.11,5.75.57,8.55.36,1.45.84,3,2.09,3.82s3,.63,4.52.89c-.06.25-.12.49-.17.74A29.51,29.51,0,0,0,840,500.3v.78a19.73,19.73,0,0,1-.14,2.22h0s-13-2.67-16.49-.87-10.35,3.23-11.38,4.26-3.62.26-5.95,6.32-2.58,12.26-5.56,15.09-4.52,4.78-4.65,6.84.38,2.58-.78,3.23-2.84,3.35-2.33,4.38c0,0,.65,2.58-1.42,3.87a4.33,4.33,0,0,0-1.81,3.87s-.78,2.84-2.59,3.48-3,4.91-3,4.91l-5.86,6.74-11.63-12.86a4.9,4.9,0,0,0-6.91-.35l-5.61,5.2a11.27,11.27,0,0,0-5.71,3.4,15.2,15.2,0,0,0-3,4.4L742.1,568a7.92,7.92,0,0,0-.8,8.76l7.44,8.24v.07a13,13,0,0,0-7.2,2.93c-11.12,9.8-11.25,18.83-9.57,23s15.77,20,15.77,20,8.19,10.65,20,16.31h0l-.08.09c-.24.25-.47.52-.7.81l-.19.25-.18.25-.21.31-.16.25-.23.37a1.23,1.23,0,0,1-.14.25c-.09.16-.18.33-.26.5l-.09.17c-.11.22-.21.46-.32.7a1.16,1.16,0,0,0-.1.26c0,.08-.14.34-.2.52l-.12.33c-.06.16-.11.33-.17.5s-.07.24-.11.37l-.15.56-.09.35c-.08.3-.14.61-.21.93l-.06.37a5.67,5.67,0,0,1-.11.66c0,.23-.05.31-.07.47a2.66,2.66,0,0,1-.08.64c-.08.22,0,.33-.05.49a3.63,3.63,0,0,0,0,.74v.45a10.7,10.7,0,0,1,0,1.25c-.26,15.09.62,17.28.62,17.28s1.83,4.81,6.87,5.15a9.06,9.06,0,0,0,2.21-.12c6.72-1.16,22.5-3.87,28.06-2.83,3.34.62,9.53-.3,13.93-1.13l1.17-.23.8,2.57,2.56-.7,2.17,1.25,1.37.79c2.55,8.65,12.91,5.7,12.91,5.7l2.46,1.42,25,.64a51.32,51.32,0,0,0,8.84,4.25,9,9,0,0,0,1.25.27,57.62,57.62,0,0,0,6.95.13c1.92,0,3.4-.13,3.4-.13s-.26-6.77-.62-14.36c9.53-.4,18-1,23.11-1.89,13.26-2.34,18.81-14.5,20.86-21a58.49,58.49,0,0,1,1.3,8,61.05,61.05,0,0,0,2.07,7,24,24,0,0,0,2.85,5.16c9.83-3.35,3.88-8.38,1.81-10.57s1.42-4,1.42-4,2.72-1.81,2.46-3.49-.39-3.48,8.4-3.35S956.25,648.79,956.25,648.79ZM819.71,566.42c.11.74,1.34,8.68,2.45,10.77a14.11,14.11,0,0,1,.29,4.25c-5.21-.41-10.64-.64-10.64-.64a1.18,1.18,0,0,1,.28.67l-.82-.19c-.38-.09-.78-.18-1.19-.29l9.6-14.59Zm-19,30.25,9,1.43.76.12a32.08,32.08,0,0,0-.47,4.26c0,.13.2.29.49.48a12.66,12.66,0,0,0-.17,2.13c.14.72,4.36,2.26,9.2,3.54-.07.26-.14.5-.2.74h0c-4.27-2.25-11-3.3-11.78-5s-23.61-9.63-23.61-9.63-.84-.45-2.28-1.14l6,1.14,1.66-.17a90,90,0,0,0,11.38,2.1Z"/><path class="cls-16" d="M926.82,654.4s-3.59,21.65-21.79,24.86-78.94,2.56-78.94,2.56-34.73-5-47.29-34.34-20.63-41-9.87-41.53,68.82,19.61,72.15,19.87S930,581.22,926.82,654.4Z"/><path class="cls-17" d="M926.82,654.4s-3.59,21.65-21.79,24.86-78.94,2.56-78.94,2.56-34.73-5-47.29-34.34-20.63-41-9.87-41.53,68.82,19.61,72.15,19.87S930,581.22,926.82,654.4Z"/><path class="cls-5" d="M763.93,678.49s1.81,4.77,6.8,5.12a8.9,8.9,0,0,0,2.19-.12c6.67-1.16,22.3-3.85,27.81-2.82,3.32.61,9.45-.3,13.82-1.12,2.9-.55,5-1.06,5-1.06s-5.12-17-5.77-17.56-23.06-14-23.06-14l-17.79-1.24h0a9.4,9.4,0,0,0-6,3.54c-1.87,2.27-3.48,6-3.59,12.1C763,676.31,763.93,678.49,763.93,678.49Z"/><path class="cls-17" d="M763.93,678.49s1.81,4.77,6.8,5.12a78.23,78.23,0,0,1-4.82-7l.09-12.43a21.92,21.92,0,0,1,7-18.45h-.07s-9.35.64-9.61,15.64S763.93,678.49,763.93,678.49Z"/><path class="cls-11" d="M840.93,651.32l16.53-12.94,26-25.63s-2.81-.14-7.05-.32c-1,.67-4,2.78-4.12,5.35-.12,3.14-7,.22-10.62,2s-21.1,24.28-24.18,24.12-5.51-1.56-6.79.62l-.09.14Z"/><path class="cls-11" d="M766.93,649.22c.59.28,1.19.56,1.79.82,12.56,5.38,28.07,16.66,29.22,18.71.71,1.25,9.7,6.71,16.64,10.8,2.9-.55,5-1.06,5-1.06s-5.12-17-5.77-17.56-23.06-14-23.06-14l-17.82-1.24h0A9.42,9.42,0,0,0,766.93,649.22Z"/><path class="cls-16" d="M732,612.49c1.67,4.1,15.64,19.86,15.64,19.86s8.84,11.54,21.4,16.92,28.06,16.66,29.22,18.71c.74,1.32,10.75,7.35,17.8,11.49l1.58.92,3.5,2,1.85,1.07s4.29-3.45,8.57-6.92,8.41-6.86,8.48-7c.12-.38,1.79-4.74,1.4-5-.2-.13-1.08-1.91-2.69-4a18.17,18.17,0,0,0-6.53-5.4c-5.9-2.69-8.46-8.82-8.46-8.82s-.56-.4-1.41-.94a16.94,16.94,0,0,0-5.77-2.57c-2.82-.35-8.07-6.12-8.07-6.12s-3.59-2.31-5-5.25S782.31,615,780.47,613.71l48.18,30.95,11.53,7.41,16.54-12.94,26-25.63s-3.5-.17-8.58-.39c-12.65-.55-35.1-1.41-37.94-.77a21.39,21.39,0,0,1-7,.46s-6.4.29-10.63-1.94-10.9-3.28-11.67-4.93-23.45-9.61-23.45-9.61-30.88-16.4-41.91-6.66S730.36,608.39,732,612.49Z"/><path class="cls-18" d="M831.6,518.43l4,13.19,5.13,29.74,18.83,1.28,5.46-9,5.44-9s3.39-12,5.83-23.64c2.15-10.28,3.56-20.26,1.22-21.34-2.08-1-3.45-4.43-4.34-8.15-.11-.46-.22-.93-.31-1.39a75.1,75.1,0,0,1-1.25-9.56s-39.47-2.05-34,14.23a25.51,25.51,0,0,1,1.49,8.65,17.93,17.93,0,0,1-.14,2.2A18.4,18.4,0,0,1,831.6,518.43Z"/><path class="cls-19" d="M823.39,516.25l1.42,22.42,3.2,19.1,3.59,8.84L834.8,615s30.9,3.57,38.42-.06a3.32,3.32,0,0,0,1.36-1.07c9.07-13.7,6.1-53.4,6.1-53.4l3.46-25.63-2.31-13.3-5.57-.6-4.29-.45s-1,1.19-2.37,3c-3.8,5-10.79,14.88-10.32,19,.64,5.64-.77,11.4-3,12.3s-4,2.44-4.35.9-.77-1.92-.39-4.1-1.67-8.85-1.67-8.85-3.46-7.81-3.2-11.15-.38-7.17-1.41-8.07-2.43-1.79-1.28-5.89-5.05-12.05-5.05-12.05Z"/><path class="cls-11" d="M864.21,572.26l1.29,38.32,7.4,4.1a3.38,3.38,0,0,0,1.36-1.06c9.07-13.71,6.1-53.41,6.1-53.41l3.46-25.63-2.31-13.3-5.57-.6c2.15-10.28,3.56-20.26,1.22-21.34-2.08-1-3.45-4.43-4.34-8.15h0l-4,27.11s.33,2.45.45,5a13.92,13.92,0,0,1-.32,4.77c-.9,2.31-.26,6.41-.26,6.41-2.31,4.07-3.47,11.61-4,18.89C863.93,563,864.21,572.26,864.21,572.26Z"/><path class="cls-5" d="M872.93,490.58s6.46.8,8.51,3.5,7.43,3.07,7.43,3.07,6.15,2,6,2.56,1.79,1.29,5.63,2.31,10.26,4.74,10.26,5.64,10.17,10.89,10.17,11.92,3.08,4.87,2.69,11.66-.77,15.38.77,16.79,0,6.92,0,6.92a3.8,3.8,0,0,0-.13,4.1C925.54,561.36,924,571,924,571l.12,10s-1.41,6.28.26,6.54-.26,3.08-.26,3.08-1.41,5.12.39,7.43,2.31,12.17,2.31,12.17l27.42,39.86s.39,7.3-8.33,7.18-8.59,1.66-8.33,3.33-2.43,3.46-2.43,3.46-3.46,1.79-1.41,4,7.94,7.18-1.8,10.51a24.39,24.39,0,0,1-2.82-5.13,59.11,59.11,0,0,1-2-6.92s-.9-9.74-2.69-11-1.54-7.43-1.54-7.43,2.57-5-1-7-55.62-30.89-55.62-30.89l-1.3-38.37s-.9-28.32,4.48-37.81c0,0-.64-4.1.26-6.41s-.13-9.74-.13-9.74Z"/><path class="cls-11" d="M839.36,506s-12.89-2.66-16.35-.86-10.25,3.2-11.28,4.23-3.58.25-5.89,6.28-2.56,12.17-5.51,15-4.49,4.74-4.62,6.79.39,2.56-.76,3.21-2.82,3.33-2.31,4.35,26.65,23.58,26.65,23.58,1.29,8.59,2.44,10.77-1.28,32.16-3.84,34.22,17.3,1.86,17.3,1.86.89-19.68,1.66-20.7-.51-22-.51-22-.13-17.94,1.54-22.68,1.48-20.5,1.48-20.5,1.47-9.46,3.26-11.67S839.36,506,839.36,506Z"/><path class="cls-5" d="M838.93,505.57s-12.88-2.65-16.34-.86-10.22,3.19-11.24,4.19-3.59.26-5.9,6.28-2.56,12.18-5.51,15-4.48,4.74-4.61,6.79.38,2.56-.77,3.2-2.82,3.33-2.31,4.36,26.68,23.62,26.68,23.62,1.28,8.58,2.44,10.76-1.29,32.17-3.85,34.22,17.3,1.86,17.3,1.86.9-19.67,1.67-20.7-.52-22-.52-22-.12-17.94,1.54-22.68,1.42-20.55,1.42-20.55,1.47-9.46,3.26-11.66S838.93,505.57,838.93,505.57Z"/><path class="cls-11" d="M837.62,494.72a25.51,25.51,0,0,1,1.49,8.65,29.35,29.35,0,0,0,33.72-13.32,75.1,75.1,0,0,1-1.25-9.56S832.11,478.44,837.62,494.72Z"/><path class="cls-18" d="M818.14,474.47a29.35,29.35,0,1,0,.64-6.1A29.8,29.8,0,0,0,818.14,474.47Z"/><path class="cls-5" d="M799.3,542.39l-7,2.18s.65,2.56-1.41,3.84a4.31,4.31,0,0,0-1.79,3.85s-.77,2.82-2.56,3.46-2.95,4.87-2.95,4.87l-5.9,6.79s-2.17,1.79-1.79,2.69-2.31,1.15-2.31,1.15L774.93,594l12.18,2.3,7.56-.77,6.15-2.3,5.38-3.21,2.44-6.28,10.76-16.4Z"/><path class="cls-18" d="M775.34,573S759.7,550.46,748,562.64s4.74,31.91,8.59,31.27,22.17-1.67,22.17-1.67Z"/><rect class="cls-5" x="731.41" y="533.05" width="63.54" height="81.83" rx="1.54" transform="translate(-94.99 992.79) rotate(-62.96)"/><rect class="cls-3" x="737.37" y="539.48" width="51.83" height="68.78" transform="translate(-94.86 992.83) rotate(-62.96)"/><circle class="cls-20" cx="730.33" cy="557" r="1.13"/><circle class="cls-20" cx="796.64" cy="590.97" r="1.86"/><path class="cls-18" d="M765.21,577.76c-.12,16.92,34.86,20.5,34.86,20.5l8.94,1.42,4,.64,1.67-16.54s-1.83-.27-4.12-.8c-3.39-.79-7.78-2.16-8.7-4.07C800.33,575.71,765.34,560.84,765.21,577.76Z"/><path class="cls-11" d="M818.78,468.37a3.41,3.41,0,0,1,2.15,1c1,1.05,1,2.91,2.33,3.55a2.6,2.6,0,0,0,1.53.18c3.41-.48,5.38-4.33,8.65-5.39a8.69,8.69,0,0,1,5.73.5,4.12,4.12,0,0,1,1.9,1.21c1.1,1.42.33,3.51.84,5.22.7,2.38,3.54,3.33,6,3.64s5.23.48,6.88,2.34a6.25,6.25,0,0,1,1.22,5,4,4,0,0,0,0,1.83c.68,1.93,4,1.64,4.87.12.64-1.1.45-2,1.94-2.32a6.26,6.26,0,0,1,3.14.54,23.31,23.31,0,0,0,8.11,1.24A29.35,29.35,0,0,0,821,462a29.69,29.69,0,0,0-2.16,6.41Z"/><path class="cls-5" d="M856,486.61a4.08,4.08,0,0,1,0-1.84,6.25,6.25,0,0,0-1.22-5c-1.65-1.86-4.42-2-6.88-2.34s-5.3-1.26-6-3.64c-.51-1.71.26-3.8-.84-5.21a4.09,4.09,0,0,0-1.9-1.22,8.69,8.69,0,0,0-5.73-.5c-3.27,1.06-5.24,4.91-8.65,5.39a2.6,2.6,0,0,1-1.53-.18c-1.29-.64-1.34-2.5-2.33-3.55-1.56-1.65-4.51-.58-6.42-1.81-1.24-.8-1.72-2.36-2.07-3.79-.67-2.79-1.22-5.71-.56-8.5,1.11-4.77,5.37-8,8.09-12.11,2.54-3.79,4-8.59,7.77-11.11s8.7-1.94,13-.66a37.88,37.88,0,0,0,6.09,1.59c3.46.43,6.94-.51,10.43-.63A22.44,22.44,0,0,1,871,435.68a7.53,7.53,0,0,1,2.25,2.28,11.33,11.33,0,0,1,1,4.08,21.13,21.13,0,0,0,2.71,7.5c1.07,1.8,2.43,3.43,3.4,5.3a8.11,8.11,0,0,1,.92,6.07c-.33,1-1,2-1.23,3.09-.57,2.5,1.08,4.89,2.21,7.2a13.51,13.51,0,0,1,1.5,6.83,8.58,8.58,0,0,1-3.08,6.14,11,11,0,0,1-6.49,2,22.83,22.83,0,0,1-8.27-1.27,6.26,6.26,0,0,0-3.14-.54c-1.49.3-1.3,1.22-1.94,2.32C860,488.24,856.67,488.53,856,486.61Z"/><path class="cls-11" d="M840.18,652.09l16.54-12.94,26-25.63s-3.5-.17-8.58-.39a5.7,5.7,0,0,0-1.82,3.5c-.12,3.13-7,.22-10.62,2s-21.13,24.27-24.21,24.13-5.51-1.56-6.79.62l-.09.14a3.64,3.64,0,0,1-2,1.16Z"/><path class="cls-16" d="M806.86,651.19l8.31,26.52,1.3,4.16,4-1.08,8.72-2.4L868,667.72A33.51,33.51,0,0,0,882,664a42.43,42.43,0,0,1,24.14-5.26c5.13.48,10.84-1.73,15.58-10.49,0,0,10.76-31.78-16.41-40.88s-28.46,4.84-28.46,4.84l-.37.23c-1,.67-4,2.78-4.12,5.35-.12,3.14-7,.22-10.62,2s-21.2,24.28-24.28,24.12-5.51-1.56-6.79.62l-.09.14c-1,1.31-3.81,1.61-5.69,1.67h-1.78l-.24.07-2,.59Z"/><path class="cls-11" d="M809,599.68l4,.64,1.67-16.54s-1.83-.27-4.12-.8C811.16,585.28,809.79,594.2,809,599.68Z"/><path class="cls-11" d="M913.8,522.43s11.92-3.46,9,30.38-25,55.23-25,55.23S872.43,619.19,861,617.4a197.69,197.69,0,0,0-19.73-2.18,28.85,28.85,0,0,0-11.54-3.08c-6.4-.25-19.86-4.23-20.12-5.51s3.34-20.12,1.8-21.53c0,0,17.94.74,19.73,2s4.36.37,6.28,0,7.82-5.49,19.48-1c0,0,4,.38,5.51-.64s4-.26,4-.26a11.61,11.61,0,0,0,2.79-1.41c.38-.51,3.46,0,3.46,0a1.36,1.36,0,0,0,1.82-.62.94.94,0,0,0,.1-.28,8.52,8.52,0,0,1,1.79-2.82s3.46-19.48,10-26.78c0,0,1.92-1.67,1.41-3.72S898.42,518.33,913.8,522.43Z"/><path class="cls-5" d="M913.49,519.83s11.92-3.46,9,30.38-25,55.23-25,55.23-25.38,11.15-36.78,9.36-19.78-2.18-19.78-2.18a29.09,29.09,0,0,0-11.53-3.08c-6.41-.25-19.86-4.23-20.12-5.51s3.33-20.12,1.79-21.53c0,0,17.94.74,19.74,2s4.36.36,6.28,0,7.82-5.5,19.48-1c0,0,4,.38,5.51-.64s4-.26,4-.26a11,11,0,0,0,2.78-1.41c.38-.51,3.46,0,3.46,0a1.36,1.36,0,0,0,1.82-.62.94.94,0,0,0,.1-.28,8.71,8.71,0,0,1,1.8-2.82s3.46-19.48,10-26.78c0,0,1.93-1.67,1.41-3.72S898.11,515.73,913.49,519.83Z"/><path class="cls-11" d="M820.93,647l16.92,20.48c.07-.06.11-.1.11-.12.13-.38,1.79-4.74,1.41-5s-3.33-6.67-9.23-9.36a17.6,17.6,0,0,1-7.24-6.6Z"/><path class="cls-11" d="M821.16,682.42l1.85,1.07s4.29-3.45,8.57-6.92,8.41-6.86,8.48-7c.12-.38,1.79-4.74,1.4-5-.2-.13-1.08-1.91-2.69-4-11.48-3.22-4.17,4.75-3.2,5.11,0,0-14-3.2-14.74,12A18.38,18.38,0,0,0,821.16,682.42Z"/><path class="cls-5" d="M835.31,688.9l2.44,1.41,24.73.64a50.76,50.76,0,0,0,8.76,4.21,7.66,7.66,0,0,0,1.24.28,58.73,58.73,0,0,0,6.89.13c1.9,0,3.36-.13,3.36-.13s-1.17-31.2-2-34.48c-.42-1.57-2.5-1.22-4.54-.44a30.17,30.17,0,0,0-4.43,2.24s-10.51,1-12.18,1.93-6.4-.52-9.35,0-8.2-3.47-8.2-3.47c-14.36-4.74-6.28,4.1-5.26,4.48,0,0-14-3.2-14.73,12S835.31,688.9,835.31,688.9Z"/><path class="cls-21" d="M871.07,676.82c.27,6.46,5.3,14.48,8.3,18.72,1.9,0,3.36-.13,3.36-.13s-1.17-31.2-2-34.48c-.42-1.57-2.5-1.22-4.54-.44C873.66,665.14,870.85,671.62,871.07,676.82Z"/><path class="cls-11" d="M871.07,676.82c.27,6.46,5.3,14.48,8.3,18.72,1.9,0,3.36-.13,3.36-.13s-1.17-31.2-2-34.48c-.42-1.57-2.5-1.22-4.54-.44C873.66,665.14,870.85,671.62,871.07,676.82Z"/><path class="cls-17" d="M866.84,677.68c1.7,6.23,1.68,13.22,4.4,17.45a7.66,7.66,0,0,0,1.24.28,58.73,58.73,0,0,0,6.89.13c1.9,0,3.36-.13,3.36-.13s-1.17-31.2-2-34.48c-.42-1.57-2.5-1.22-4.54-.44a30.17,30.17,0,0,0-4.43,2.24S864.66,669.7,866.84,677.68Z"/><path class="cls-11" d="M781.51,614.45s12.29,4,22.7,18.16Z"/><g class="cls-2"><path d="M881.34,460.67a.41.41,0,0,1-.07.28,8.85,8.85,0,0,1-.43,1.07A9.1,9.1,0,0,1,881.34,460.67Z"/><path d="M811.83,454.46a12.51,12.51,0,0,1,1-2.59c-.07.22-.13.44-.19.67-.65,2.79-.11,5.71.57,8.49.35,1.44.83,3,2.07,3.8,1.91,1.22,4.86.16,6.42,1.81,1,1,1,2.91,2.33,3.55a2.6,2.6,0,0,0,1.53.18c3.4-.48,5.38-4.33,8.65-5.39a8.69,8.69,0,0,1,5.73.5,4.09,4.09,0,0,1,1.9,1.22c1.09,1.41.33,3.5.83,5.21.71,2.38,3.55,3.32,6,3.64s5.23.48,6.88,2.34a6.25,6.25,0,0,1,1.22,5,3.78,3.78,0,0,0,0,1.83c.68,1.92,4,1.64,4.87.12.64-1.1.44-2,1.94-2.33a6.5,6.5,0,0,1,3.14.55A23.33,23.33,0,0,0,875,484.3a11,11,0,0,0,6.49-2,7.41,7.41,0,0,0,2-2.42,8.13,8.13,0,0,1-2.77,4.34,11,11,0,0,1-6.49,2,23,23,0,0,1-8.3-1.32,6.26,6.26,0,0,0-3.14-.54c-1.49.3-1.3,1.22-1.94,2.32-.87,1.52-4.19,1.81-4.87-.11a4.08,4.08,0,0,1,0-1.84,6.25,6.25,0,0,0-1.22-5c-1.65-1.86-4.42-2-6.88-2.34s-5.3-1.26-6-3.64c-.51-1.71.26-3.8-.84-5.21a4.22,4.22,0,0,0-1.9-1.22,8.69,8.69,0,0,0-5.73-.5c-3.27,1.06-5.25,4.91-8.65,5.39a2.6,2.6,0,0,1-1.53-.18c-1.29-.64-1.34-2.5-2.33-3.55-1.56-1.65-4.51-.58-6.42-1.81-1.24-.8-1.72-2.36-2.07-3.79A17.94,17.94,0,0,1,811.83,454.46Z"/></g><path class="cls-11" d="M883.33,557c-2.35,3.17-5,6.1-7.11,9.45s-3.54,7.27-3.11,11.19c2.15-2.2,3.13-5.25,4.49-8,2.29-4.68,5.72-8.65,8.62-13,.55-.82,4.09-5.57,2.3-5.8C887,550.7,884.13,556,883.33,557Z"/></g></g></svg>